<?xml version="1.0" encoding="UTF-8"?>
<svg width="842px" height="595px" viewBox="0 0 842 595" version="1.1" xmlns="http://www.w3.org/2000/svg" xmlns:xlink="http://www.w3.org/1999/xlink">
    <!-- Generator: Sketch 55.2 (78181) - https://sketchapp.com -->
    <title>A4 Copy 5</title>
    <desc>Created with Sketch.</desc>
    <g id="A4-Copy-5" stroke="none" stroke-width="1" fill="none" fill-rule="evenodd">
        <rect id="Rectangle" fill="#C8E4FF" x="55" y="278" width="231" height="160"></rect>
        <rect id="Rectangle-Copy-5" fill="#FFC8C8" x="306" y="278" width="231" height="160"></rect>
        <rect id="Rectangle-Copy-6" fill="#C8FFD9" x="557" y="278" width="231" height="160"></rect>
        <path d="M331.638852,109.5 C323.737133,109.5 320.395968,110.145209 316.938941,111.994047 C313.941085,113.597318 311.597318,115.941085 309.994047,118.938941 C308.145209,122.395968 307.5,125.737133 307.5,133.638852 L307.5,462.361148 C307.5,470.262867 308.145209,473.604032 309.994047,477.061059 C311.597318,480.058915 313.941085,482.402682 316.938941,484.005953 C320.395968,485.854791 323.737133,486.5 331.638852,486.5 L511.361148,486.5 C519.262867,486.5 522.604032,485.854791 526.061059,484.005953 C529.058915,482.402682 531.402682,480.058915 533.005953,477.061059 C534.854791,473.604032 535.5,470.262867 535.5,462.361148 L535.5,133.638852 C535.5,125.737133 534.854791,122.395968 533.005953,118.938941 C531.402682,115.941085 529.058915,113.597318 526.061059,111.994047 C522.604032,110.145209 519.262867,109.5 511.361148,109.5 L331.638852,109.5 Z" id="Rectangle" stroke="#232D37" stroke-width="3"></path>
        <path d="M582.638852,109.5 C574.737133,109.5 571.395968,110.145209 567.938941,111.994047 C564.941085,113.597318 562.597318,115.941085 560.994047,118.938941 C559.145209,122.395968 558.5,125.737133 558.5,133.638852 L558.5,462.361148 C558.5,470.262867 559.145209,473.604032 560.994047,477.061059 C562.597318,480.058915 564.941085,482.402682 567.938941,484.005953 C571.395968,485.854791 574.737133,486.5 582.638852,486.5 L762.361148,486.5 C770.262867,486.5 773.604032,485.854791 777.061059,484.005953 C780.058915,482.402682 782.402682,480.058915 784.005953,477.061059 C785.854791,473.604032 786.5,470.262867 786.5,462.361148 L786.5,133.638852 C786.5,125.737133 785.854791,122.395968 784.005953,118.938941 C782.402682,115.941085 780.058915,113.597318 777.061059,111.994047 C773.604032,110.145209 770.262867,109.5 762.361148,109.5 L582.638852,109.5 Z" id="Rectangle-Copy-3" stroke="#232D37" stroke-width="3"></path>
        <path d="M80.638852,109.5 C72.7371328,109.5 69.395968,110.145209 65.9389413,111.994047 C62.9410847,113.597318 60.5973181,115.941085 58.9940468,118.938941 C57.1452087,122.395968 56.5,125.737133 56.5,133.638852 L56.5,462.361148 C56.5,470.262867 57.1452087,473.604032 58.9940468,477.061059 C60.5973181,480.058915 62.9410847,482.402682 65.9389413,484.005953 C69.395968,485.854791 72.7371328,486.5 80.638852,486.5 L260.361148,486.5 C268.262867,486.5 271.604032,485.854791 275.061059,484.005953 C278.058915,482.402682 280.402682,480.058915 282.005953,477.061059 C283.854791,473.604032 284.5,470.262867 284.5,462.361148 L284.5,133.638852 C284.5,125.737133 283.854791,122.395968 282.005953,118.938941 C280.402682,115.941085 278.058915,113.597318 275.061059,111.994047 C271.604032,110.145209 268.262867,109.5 260.361148,109.5 L80.638852,109.5 Z" id="Rectangle-Copy" stroke="#232D37" stroke-width="3"></path>
        <text id="I-want-to-be-an-actr" font-family="IBMPlexSans, IBM Plex Sans" font-size="20" font-weight="normal" fill="#414141">
            <tspan x="367.94" y="154">I want to be</tspan>
            <tspan x="369.98" y="179" font-family="IBMPlexSans-Bold, IBM Plex Sans" font-weight="bold">an actress!</tspan>
        </text>
        <text id="Ein-geheimnis-volles" font-family="IBMPlexSans, IBM Plex Sans" font-size="20" font-weight="normal" fill="#414141">
            <tspan x="606.18" y="154">Ein geheimnis-</tspan>
            <tspan x="612.54" y="179">volles </tspan>
            <tspan x="669.64" y="179" font-family="IBMPlexSans-Bold, IBM Plex Sans" font-weight="bold">Dinner</tspan>
        </text>
        <text id="Hinter-die-Kulissen" font-family="IBMPlexSans, IBM Plex Sans" font-size="20" font-weight="normal" fill="#414141">
            <tspan x="126.47" y="152">Hinter die</tspan>
            <tspan x="85.21" y="177" font-family="IBMPlexSans-Bold, IBM Plex Sans" font-weight="bold">Kulissen</tspan>
            <tspan x="165.61" y="177"> </tspan>
            <tspan x="170.33" y="177" font-family="IBMPlexSans-Bold, IBM Plex Sans" font-weight="bold">geschaut</tspan>
        </text>
        <text id="Du-bekommst-Schauspi" font-family="IBMPlexSans, IBM Plex Sans" font-size="12" font-weight="normal" line-spacing="17" fill="#414141">
            <tspan x="350.892" y="334">Du bekommst Schauspiel-</tspan>
            <tspan x="340.194" y="351">Unterricht mit </tspan>
            <tspan x="418.122" y="351" font-family="IBMPlexSans-Bold, IBM Plex Sans" font-weight="bold">professioneller </tspan>
            <tspan x="342.018" y="368" font-family="IBMPlexSans-Bold, IBM Plex Sans" font-weight="bold">Anleitung</tspan>
            <tspan x="396.726" y="368"> in verschiedensten </tspan>
            <tspan x="328.638" y="385">Bereichen wie Schauspiel, Stimme </tspan>
            <tspan x="352.716" y="402">und Sprache und Gesang.</tspan>
        </text>
        <text id="Wir-lassen-uns-gemei" font-family="IBMPlexSans, IBM Plex Sans" font-size="12" font-weight="normal" line-spacing="17" fill="#414141">
            <tspan x="591.272" y="334">Wir lassen uns gemeinsam ein </tspan>
            <tspan x="588.062" y="351">unterhaltsames Musical-Dinner </tspan>
            <tspan x="578.636" y="368">schmecken. Zu ungefährlich? Dann </tspan>
            <tspan x="587.834" y="385">gehen wir gemeinsam zu einem </tspan>
            <tspan x="581.828" y="402">Krimidinner auf </tspan>
            <tspan x="667.556" y="402" font-family="IBMPlexSans-Bold, IBM Plex Sans" font-weight="bold">schwiizerdütsch</tspan>
            <tspan x="759.908" y="402">.</tspan>
        </text>
        <text id="Wir-erleben-das-Stut" font-family="IBMPlexSans, IBM Plex Sans" font-size="12" font-weight="normal" line-spacing="17" fill="#414141">
            <tspan x="97.738" y="334">Wir erleben das Stuttgarter </tspan>
            <tspan x="93.748" y="351">Theater von allen Seiten und </tspan>
            <tspan x="76.288" y="368">gehen </tspan>
            <tspan x="112.192" y="368" font-family="IBMPlexSans-Bold, IBM Plex Sans" font-weight="bold">Backstage</tspan>
            <tspan x="170.704" y="368">! Dabei lernen wir </tspan>
            <tspan x="90.34" y="385">alles über den Aufbau und die </tspan>
            <tspan x="81.622" y="402">Abläufe einer Musicalproduktion.</tspan>
        </text>
        <text id="Stuttgart" font-family="IBMPlexSans-Bold, IBM Plex Sans" font-size="11" font-weight="bold" fill="#414141">
            <tspan x="139.2875" y="467">STUTTGART</tspan>
        </text>
        <text id="Berlin-–-Dresden-–-H" font-family="IBMPlexSans-Bold, IBM Plex Sans" font-size="11" font-weight="bold" fill="#414141">
            <tspan x="337.042" y="467">BERLIN – DRESDEN – HAMBURG</tspan>
        </text>
        <text id="Zürich" font-family="IBMPlexSans-Bold, IBM Plex Sans" font-size="11" font-weight="bold" fill="#414141">
            <tspan x="651.699" y="467">ZÜRICH</tspan>
        </text>
        <g id="003-eating" transform="translate(628.000000, 208.000000)" fill-rule="nonzero">
            <path d="M26.6731623,94.1176471 C24.9845719,94.1176471 23.5896158,92.7964417 23.5364379,91.1223586 C23.3214143,84.3926355 28.074284,74.6774895 33.3165444,71.1320152 C34.7461816,70.1652055 36.7006615,70.5218777 37.6832963,71.929595 C38.6651603,73.3373123 38.3021636,75.2625837 36.8725263,76.2293934 C33.6548789,78.4050944 29.6534359,85.9240496 29.8137402,90.9280861 C29.8684595,92.6348009 28.5074141,94.0622491 26.7741232,94.1153704 C26.7402127,94.1168882 26.7063022,94.1176471 26.6731623,94.1176471 Z" id="Path" fill="#EFD176"></path>
            <path d="M50.6918844,98.0392157 C50.3105524,98.0392157 49.9231675,97.9682225 49.5478883,97.8179287 C47.9673277,97.1872985 47.1986107,95.3966108 47.8311375,93.8181474 C49.620523,89.351624 48.392543,80.2146613 47.3332874,77.8749099 C46.6319088,76.3259009 47.3211816,74.503493 48.8722344,73.8033803 C50.424044,73.1032675 52.2497466,73.7912964 52.9511252,75.3395501 C54.5770828,78.9299882 56.0774425,89.8100582 53.554901,96.1042762 C53.0729396,97.3073826 51.9153246,98.0392157 50.6918844,98.0392157 L50.6918844,98.0392157 Z" id="Path" fill="#EFD176"></path>
            <path d="M75.9553224,76.4705882 C74.2999141,76.4705882 72.9121789,76.1537115 71.8877696,75.805975 C66.5898458,74.0085839 62.7228551,68.8376975 61.7948699,62.3119935 C61.5565096,60.634278 62.7567964,59.0860228 64.4762303,58.8534457 C66.1964355,58.6186107 67.7824185,59.7920331 68.020779,61.4697488 C68.6139798,65.6380703 70.9420423,68.9919961 73.9527874,70.0133778 C75.8612126,70.6599269 78.9652961,70.6569162 82.9186827,66.9642859 C84.1729669,65.7931217 86.1623882,65.8352716 87.362675,67.0583706 C88.5629618,68.2822223 88.5197638,70.2233746 87.2654796,71.394539 C82.9942791,75.3844762 79.0177508,76.4705882 75.9553224,76.4705882 L75.9553224,76.4705882 Z" id="Path" fill="#EFD176"></path>
            <path d="M26.379256,58.8235294 C26.0488593,58.8235294 25.7125094,58.7680192 25.3828568,58.6524976 C15.4374692,55.162848 10.832751,49.4527852 6.23919465,40.7691689 C5.45189807,39.2793917 6.01074481,37.4280471 7.48860031,36.6343993 C8.96645599,35.8407517 10.8022414,36.4033563 11.5902821,37.8931337 C16.2351838,46.674268 20.0712088,50.316196 27.3756551,52.879423 C28.9569457,53.4345263 29.7926113,55.1763507 29.2426942,56.7703973 C28.80663,58.0321323 27.6338704,58.8235294 26.379256,58.8235294 L26.379256,58.8235294 Z" id="Path" fill="#EFD176"></path>
            <path d="M44.1100248,15.4146309 C47.6802014,20.3898538 47.2333534,27.1016476 46.6966752,30.4938791 C46.5016592,31.72626 45.2908704,32.5533412 44.0370857,32.3106108 C40.5874506,31.6423532 33.9699555,29.756698 30.3997791,24.7814751 C26.8296026,19.8062522 27.2764504,13.0937093 27.8131286,9.70222691 C28.0081446,8.46909672 29.2189337,7.64276466 30.4727182,7.8854952 C33.9223533,8.55300351 40.5398483,10.439408 44.1100248,15.4146309 Z" id="Path" fill="#8EE2CF"></path>
            <path d="M39.7781676,24.5098039 C39.3372657,24.5098039 38.9029228,24.2967837 38.6310941,23.8976511 L34.5667816,17.9450432 C34.1236935,17.2955184 34.2774624,16.4008332 34.9107578,15.94639 C35.544053,15.4911994 36.4156539,15.6489092 36.8594706,16.2984341 L40.9230545,22.2517893 C41.3668712,22.9013142 41.2123736,23.7959994 40.5798069,24.2504426 C40.3356714,24.4253433 40.0558263,24.5098039 39.7781676,24.5098039 Z" id="Path" fill="#6FCE91"></path>
            <path d="M60.5126427,18.6351244 C55.5374198,22.205363 53.6517645,28.8229731 52.9835068,32.2726681 C52.7407765,33.5264744 53.5678577,34.7372845 54.8002387,34.9323039 C58.1924702,35.4682237 64.9050131,35.915847 69.8794869,32.3456085 C74.8547098,28.7753698 76.741114,22.15776 77.4086225,18.7080648 C77.6513529,17.4542584 76.8250208,16.2434485 75.5918908,16.048429 C72.2004084,15.5117416 65.4878655,15.0648859 60.5126427,18.6351244 L60.5126427,18.6351244 Z" id="Path" fill="#8EE2CF"></path>
            <path d="M62.2204249,29.4117647 C61.7682058,29.4117647 61.3227142,29.2040729 61.0439082,28.8149244 C60.5894469,28.1816471 60.7471629,27.3093419 61.3959662,26.8662664 L67.3495588,22.8020685 C67.9983621,22.358993 68.8930827,22.5127577 69.3482916,23.146035 C69.8027529,23.7793126 69.6450369,24.6516175 68.9954861,25.0946931 L63.0426409,29.1588909 C62.7922388,29.3294168 62.5052106,29.4117647 62.2204249,29.4117647 Z" id="Path" fill="#6FCE91"></path>
            <path d="M60.5755503,21.0669987 C59.5105891,27.222823 54.4030131,31.790346 51.6055027,33.8774972 C50.5889833,34.6361809 49.1546536,34.3786603 48.4545192,33.3115685 C46.5266894,30.3755241 43.2606565,24.3045119 44.3263747,18.1486876 C45.392093,11.9928633 50.4989119,7.42534052 53.2964223,5.33818912 C54.3129419,4.57950536 55.7472714,4.83702597 56.447406,5.90411776 C58.3759927,8.84016221 61.6412685,14.9111744 60.5755503,21.0669987 Z" id="Path" fill="#8EE2CF"></path>
            <path d="M51.3642133,24.5098039 C51.2854866,24.5098039 51.2060506,24.5032269 51.1259054,24.4886113 C50.3847392,24.3541477 49.8903922,23.6262904 50.0208941,22.8633555 L51.218817,15.8661325 C51.349319,15.1031975 52.0564411,14.5923821 52.7961885,14.7275764 C53.5366453,14.86204 54.0317018,15.5898974 53.9004906,16.3528322 L52.7032769,23.3507862 C52.5869598,24.0311428 52.0124676,24.5098039 51.3642133,24.5098039 Z" id="Path" fill="#6FCE91"></path>
            <path d="M50.1088607,28.7853484 C62.656439,30.997252 69.8833048,42.4597609 68.4468715,57.6340262 C66.9528596,73.4188376 59.0502034,83.9965852 40.9356884,80.8029599 C22.8211732,77.6093345 19.012655,64.967396 23.0083035,49.6234505 C26.8493988,34.8726283 37.5612822,26.5734447 50.1088607,28.7853484 L50.1088607,28.7853484 Z" id="Path" fill="#F7EF87"></path>
            <g id="Group" transform="translate(21.568627, 27.450980)" fill="#EFD176">
                <path d="M21.0624213,0.109166674 C11.9313313,1.7758789 4.61090686,9.49902963 1.57051391,21.2759506 C-2.43887092,36.8045114 1.36238275,49.6062146 19.4606497,52.8912059 C-0.148665201,35.4214787 10.0238432,12.0021731 21.0624213,0.109166674 Z" id="Path"></path>
                <path d="M27.9025431,20.0712743 C27.4412998,20.0712743 26.9876806,19.8514037 26.7025484,19.4416445 L25.7137346,18.0178664 L24.3017968,19.0142036 C23.6385216,19.4823899 22.7267085,19.3201776 22.2631782,18.6521089 C21.7996479,17.9840401 21.9605112,17.063812 22.6222617,16.5963946 L25.2334317,14.7528634 C25.8959447,14.2854459 26.80852,14.4476581 27.2720503,15.114958 L29.1010129,17.7487939 C29.5645432,18.4160938 29.4036799,19.3363219 28.741167,19.8045081 C28.4857679,19.9844024 28.1930119,20.0712743 27.9025431,20.0712743 L27.9025431,20.0712743 Z" id="Path"></path>
                <path d="M40.5939728,22.3276399 C40.1327295,22.3276399 39.6791103,22.108538 39.3939781,21.6980101 L38.4051643,20.2742319 L36.9932265,21.2713378 C36.331476,21.7387553 35.4181382,21.5765429 34.9546079,20.9084743 C34.4910776,20.2411744 34.6519409,19.3209463 35.3144538,18.8535289 L37.9256237,17.0092287 C38.2435386,16.7847453 38.6361671,16.6971047 39.0196468,16.7647572 C39.4016018,16.8331784 39.7416258,17.0515116 39.9642424,17.3720923 L41.7924424,20.0051595 C42.2559727,20.6732281 42.0951096,21.5934562 41.4325965,22.0608736 C41.1771976,22.2407677 40.8844416,22.3276399 40.5939728,22.3276399 L40.5939728,22.3276399 Z" id="Path"></path>
                <path d="M15.2111134,17.8149088 C14.7498703,17.8149088 14.2962509,17.5950382 14.0111187,17.185279 L13.0223049,15.7607321 L11.6103671,16.758607 C10.9486166,17.2260244 10.035279,17.063812 9.57174867,16.3957434 C9.10821835,15.7276746 9.26908172,14.8074465 9.93159458,14.3400291 L12.5427645,12.4964978 C12.8606792,12.2720145 13.2533077,12.1843736 13.6367876,12.2520261 C14.0187426,12.3196786 14.3587664,12.5380118 14.5813831,12.8585927 L16.4095832,15.4916597 C16.8731135,16.1597283 16.7122502,17.0799564 16.0497373,17.5473738 C15.7943382,17.7280368 15.5015822,17.8149088 15.2111134,17.8149088 Z" id="Path"></path>
                <path d="M29.6606037,47.4351835 C29.1993606,47.4351835 28.7457412,47.2160814 28.4606092,46.8063224 L27.4717952,45.3817756 L26.0598576,46.3788815 C25.3981069,46.8470677 24.4847693,46.6848555 24.021239,46.0167867 C23.5577087,45.348718 23.718572,44.42849 24.3810849,43.9610725 L26.9914925,42.1175411 C27.3094071,41.892289 27.7035603,41.8038794 28.0855156,41.8730696 C28.4674706,41.9407221 28.8074944,42.1590552 29.0301111,42.4796359 L30.8590735,45.1127029 C31.3226039,45.7807717 31.1617405,46.7009998 30.4992276,47.1684173 C30.2438287,47.3490803 29.9510727,47.4351835 29.6606037,47.4351835 L29.6606037,47.4351835 Z" id="Path"></path>
                <path d="M16.969174,45.178818 C16.5079309,45.178818 16.0543115,44.9597159 15.7691795,44.5491882 L14.7803657,43.12541 L13.3684279,44.1225159 C12.7059149,44.5907021 11.7933396,44.4277212 11.3298093,43.7596524 C10.866279,43.0915838 11.0271423,42.1721244 11.6896552,41.7039382 L14.3008253,39.8604068 C14.9633382,39.3929894 15.8759134,39.5552017 16.3394438,40.2232704 L18.167644,42.8563374 C18.6311744,43.5244062 18.470311,44.4446343 17.8077981,44.9120517 C17.552399,45.0927148 17.259643,45.178818 16.969174,45.178818 L16.969174,45.178818 Z" id="Path"></path>
            </g>
            <path d="M45.426039,66.6250802 C46.9320432,66.8850272 48.3683039,65.8993318 48.6334831,64.4230427 L50,56.8244733 L44.5469617,55.8823529 L43.1796785,63.4809222 C42.9144992,64.9572113 43.9200349,66.3643817 45.426039,66.6250802 Z" id="Path" fill="#FFFFFF"></path>
            <path d="M35.2411145,58.3063082 C35.6550129,55.927682 33.5997672,53.573358 30.6514906,53.0462934 C27.7024642,52.5199882 24.9768829,54.0214391 24.5629844,56.4000655 C24.148336,58.7779326 26.2035819,61.1330157 29.1526083,61.6593209 C32.1008849,62.1863858 34.827216,60.6849348 35.2411145,58.3063082 L35.2411145,58.3063082 Z" id="Path" fill="#EDA1AB"></path>
            <path d="M53.9745878,61.3015348 C53.5606837,63.6801612 55.6152076,66.0344849 58.5642741,66.5615497 C61.5125911,67.087855 64.2389591,65.586404 64.6528632,63.2077776 C65.0667673,60.8299107 63.0122436,58.4748275 60.0631768,57.9485221 C57.1141103,57.4214575 54.3884919,58.9229084 53.9745878,61.3015348 L53.9745878,61.3015348 Z" id="Path" fill="#EDA1AB"></path>
            <path d="M49.9275183,56.7523351 C50.3992655,54.1476446 48.5039737,53.5698849 46.110517,53.1595066 C43.7170601,52.7491285 41.7327026,52.661033 41.2609554,55.2657235 C40.7884532,57.8704139 42.3455966,60.3150641 44.7390535,60.7254424 C47.1317554,61.1358207 49.4550163,59.3570255 49.9275183,56.7523351 Z" id="Path" fill="#4E5660"></path>
            <path d="M20.3996515,17.2096321 C21.266987,8.77495943 19.1204822,1.90623364 14.4156389,1.0631493 C9.71079534,0.218533375 5.38390559,5.92715662 3.36238129,14.1543126 C2.56280646,17.4056626 3.20728493,20.4372439 5.75658886,22.3768739 C6.76396282,23.1433841 7.2081712,24.4589325 6.91830633,25.7032669 L2.0809534,46.444215 C1.49595372,48.9520274 3.10714989,51.4445247 5.60299801,51.8917193 C8.09959936,52.3396798 10.4516444,50.5585587 10.7452737,47.99791 L13.1748672,26.8250823 C13.320176,25.5547126 14.1807355,24.4734817 15.3846151,24.1036272 C18.4330887,23.1678879 20.0570841,20.5429167 20.3996515,17.2096321 Z" id="Path" fill="#A3DEFE"></path>
            <path d="M41.3419159,85.0973746 C47.2005734,81.6989819 62.967899,84.2172153 67.5722087,67.9885146 C67.9649004,66.6063895 66.751332,65.3006672 65.3595421,65.5932896 C56.6553804,67.4246626 50.0702432,67.6179615 43.6459585,66.4719207 C37.2209187,65.32588 31.0994599,62.8649486 23.538635,58.1325646 C22.3295978,57.3761776 20.7475034,58.1829903 20.6493304,59.6178333 C19.490135,76.4608117 35.1577771,79.5497736 39.5136339,84.771135 C39.9690053,85.3166503 40.730223,85.4526472 41.3419159,85.0973746 L41.3419159,85.0973746 Z" id="Path" fill="#FCF2D0"></path>
            <path d="M33.3302476,63.2982188 C30.269136,61.9917163 27.0729081,60.3016676 23.5713326,58.1325681 C22.3491781,57.3761719 20.7499191,58.1829944 20.6499176,59.6178551 C19.478909,76.4610397 35.3157715,79.5500393 39.7196497,84.7714646 C40.1799616,85.3169866 40.949438,85.4522212 41.5677673,85.0977083 C42.0326593,84.8302954 42.5593841,84.6003204 43.1372549,84.3947947 C33.0844425,78.9021363 33.0287166,69.5717224 33.3302476,63.2982188 L33.3302476,63.2982188 Z" id="Path" fill="#F6E3A3"></path>
            <path d="M35.7658996,64.7058824 L34.3137255,72.8002952 C36.9996727,73.9067148 39.5599436,74.6885143 41.750849,75.0681164 C43.9417544,75.4477186 46.6192722,75.5734995 49.5282181,75.436421 L50.9803922,67.3427613 C48.3082386,67.3164002 45.7724899,67.0791489 43.2620296,66.6438114 C40.7515693,66.2092273 38.2863219,65.5788167 35.7658996,64.7058824 L35.7658996,64.7058824 Z" id="Path" fill="#E26E7E"></path>
            <path d="M34.3137255,72.6660875 C29.6826777,70.6225225 24.6604396,67.4975707 20.5882353,63.7254902 C21.5941536,72.7628472 27.8782016,77.0613005 33.0195616,80.3921569 L34.3137255,72.6660875 Z" id="Path" fill="#E26E7E"></path>
            <path d="M34.3137255,74.8474384 C33.9911549,73.9557009 33.742617,73.0554487 33.5507365,72.1575186 C29.1193576,70.1209201 24.440196,67.1987768 20.5882353,63.7254902 C21.6216697,72.7636212 28.0776134,77.0613005 33.3596116,80.3921569 L34.3137255,74.8474384 Z" id="Path" fill="#D9495D"></path>
            <path d="M50.3554138,75.8840897 C55.5324208,75.6408064 61.4524698,74.5534944 66.6666667,72.5490196 C62.6600078,80.387815 55.1240891,82.0997529 49.0196078,83.3333333 L50.3554138,75.8840897 Z" id="Path" fill="#E26E7E"></path>
            <path d="M10.4484808,19.5394371 C12.7968238,19.9452973 15.190713,18.5251651 15.5041342,15.8111179 C16.0954657,10.693654 15.2516989,6.31762156 12.9033562,5.91176159 C10.5550132,5.50665738 8.23291751,9.33625251 7.0008481,14.3433708 C6.34698665,16.9984663 8.10091002,19.1343329 10.4484808,19.5394371 Z" id="Path" fill="#7ACEFA"></path>
            <path d="M87.9479215,66.0216917 C87.1052262,65.1389698 85.9694528,64.638481 84.7514651,64.6117781 C83.5327163,64.5843122 82.3763893,65.0359729 81.495632,65.8805478 C78.8305229,68.4371607 76.2864512,69.3931248 74.1389868,68.6454434 C72.1156049,67.9404866 70.397481,65.735589 69.6027441,62.8562525 C69.9582443,61.1480292 70.2300077,59.3421495 70.4088997,57.4454801 C71.1488272,49.6100833 69.7085568,42.575011 66.2441432,37.0993887 C66.0142481,36.7354662 65.7759793,36.3814619 65.5308592,36.0350869 C67.6828912,35.5033176 69.5913254,34.6602687 71.2249514,33.5135694 C76.6632661,29.697342 78.7254714,22.811806 79.4707276,19.0474588 C79.6686506,18.0495327 79.4562639,17.0409257 78.8739137,16.206269 C78.2908022,15.3723753 77.4176573,14.827636 76.4143399,14.6727591 C73.0313792,14.149382 66.9513374,13.7663861 61.815997,16.4153147 C61.2785598,11.658382 58.9362174,7.43398174 57.3216226,5.01546115 C56.7575422,4.16936023 55.8958159,3.6063104 54.8955435,3.42930826 C53.8945101,3.25306901 52.8927151,3.48652863 52.0736186,4.08772577 C49.731276,5.80739306 46.0879706,8.97435821 43.9602984,13.2597937 C40.0376171,9.01021626 34.1943214,7.28597142 30.8364818,6.61839863 C29.8415381,6.42003416 28.8344147,6.63213146 28.0023768,7.21654381 C27.1695778,7.80019307 26.6260507,8.67604851 26.4715187,9.68160371 C25.8876458,13.474943 25.4758136,20.651922 29.2835475,26.1016045 C30.4269333,27.7388744 31.9326706,29.1854092 33.7741157,30.4228982 C33.4254666,30.6639874 33.080624,30.9157576 32.7403486,31.178209 C27.6765651,35.0898039 23.9510455,41.1116917 21.9550682,48.603765 C18.6025573,46.3889495 15.9732266,43.1914668 13.0317865,37.8447813 L14.2497741,27.3879217 C14.3312269,26.6860167 14.8047196,26.1054192 15.4548206,25.9085807 C18.903248,24.8648784 21.1275978,21.905433 21.5569386,17.7901332 C21.8325082,15.148071 21.8218507,12.6585968 21.5264889,10.3903754 C21.4221986,9.58852509 20.6875999,9.02318639 19.8882956,9.12770916 C19.0882299,9.23223193 18.5233881,9.96770636 18.6284396,10.7695566 C18.8941131,12.8111848 18.9017256,15.0710138 18.6497544,17.48572 C18.4335616,19.5563398 17.5573717,22.2121349 14.6098416,23.1040122 C12.8437596,23.6388333 11.5633502,25.1868391 11.346396,27.0484133 L8.88910595,48.1429493 C8.79242833,48.9722652 8.37146121,49.7031621 7.70385179,50.202125 C7.03548099,50.7003251 6.21638451,50.8948747 5.39576525,50.7499162 C4.57514599,50.6057203 3.87175833,50.1418526 3.41425158,49.4437624 C2.95674503,48.7464349 2.81058651,47.915593 3.00241956,47.1030616 L7.89340107,26.4380611 C8.32502548,24.6146339 7.64980354,22.7210161 6.17299355,21.6132268 C3.70733,19.7646224 3.79030536,16.9684464 4.29348645,14.9489434 C6.21181695,7.25926846 10.1230796,2.34211841 13.7983575,2.99214333 C14.8892176,3.18516737 15.8384867,3.82908897 16.61876,4.90636064 C17.0937752,5.5609633 18.0072659,5.70592205 18.6604117,5.23061021 C19.3135576,4.75529837 19.4589548,3.83900714 18.9839396,3.18440448 C17.7606234,1.49601749 16.1429836,0.43171595 14.3061059,0.107466184 C11.4750459,-0.393785531 8.71478152,0.865066029 6.32295823,3.74516544 C4.22040719,6.27812717 2.53806188,9.90590825 1.45785906,14.2386461 C0.456825429,18.2532378 1.53702825,21.7955696 4.42137515,23.9592682 C4.96566341,24.3666782 5.21154472,25.0746868 5.04863877,25.7620961 L0.158418461,46.4270964 C-0.216112734,48.0086718 0.080771652,49.6947697 0.9714252,51.0535663 C1.86283994,52.4116 3.29093043,53.3530684 4.88801661,53.6353562 C5.22676937,53.6948657 5.5678059,53.7246202 5.90808124,53.7246202 C7.17326598,53.7246202 8.42398688,53.3172102 9.44938026,52.5512181 C10.0362981,52.1132903 10.5311055,51.5708399 10.9162942,50.9589617 C13.4915768,53.8856006 16.4101795,56.153822 19.8936241,57.942154 C19.4330726,58.4800271 19.1506517,59.1575181 19.0988872,59.8945183 C18.5172981,68.2746543 21.8652417,73.477907 26.0117282,77.1606198 C23.2727786,81.8481249 21.6794986,87.2192244 21.8119546,91.4436247 C21.8896015,93.9269954 23.8924297,95.8732561 26.3710345,95.8732561 C26.4205154,95.8732561 26.4707573,95.8724932 26.5164318,95.8702043 C27.7344195,95.8328201 28.8648644,95.3208873 29.6991859,94.430536 C30.5335074,93.5394217 30.971983,92.3767007 30.9339208,91.1559963 C30.8600803,88.8206361 31.8771,85.4476772 33.523667,82.4195671 C35.6399203,83.723432 37.4539607,84.8670795 38.4572781,86.0580294 C39.0289711,86.7370462 39.8533963,87.0979169 40.6915242,87.0979169 C41.1870928,87.0979169 41.6879903,86.9712689 42.1439743,86.7095803 C43.3741418,86.0023346 45.2247218,85.5636441 47.387411,85.1127464 C47.6713545,88.6924622 47.4224282,91.9021518 46.6946806,93.7271049 C46.2417414,94.8615972 46.2562051,96.104427 46.736549,97.2274751 C47.2168927,98.3497601 48.1045013,99.2179863 49.2364686,99.6719356 C49.7784731,99.8893737 50.3486435,100 50.9294714,100 C52.2867664,100 53.5633696,99.4018548 54.4327082,98.3596783 C54.9503529,97.7394079 54.8673776,96.8154872 54.2484877,96.2966878 C53.6288364,95.7778884 52.7077333,95.861049 52.1893274,96.4813194 C51.8817853,96.8505825 51.4113377,97.0703093 50.9302326,97.0703093 C50.7224135,97.0703093 50.5176392,97.0306364 50.322,96.9520535 C49.9147353,96.7887844 49.5957749,96.4767419 49.4237341,96.0739094 C49.2509321,95.6703139 49.2456035,95.223231 49.4085093,94.8158208 C50.6432443,91.721335 50.5069819,87.2230391 50.2702355,84.5138383 C51.3154211,84.2887709 52.3963853,84.0377636 53.4902904,83.7348761 C53.7354103,86.1961216 53.7704275,88.6573668 53.5778333,90.8126732 C53.5062764,91.6191011 54.0992842,92.3301614 54.903156,92.4026406 C54.9480694,92.4064554 54.9914601,92.4079812 55.0356121,92.4079812 C55.7839133,92.4079812 56.4218344,91.8357761 56.4895849,91.0743616 C56.7141514,88.5581847 56.6585806,85.6681669 56.3358139,82.8216367 C60.1899835,81.386546 63.9596552,79.0550005 66.661304,74.7367586 C68.0201213,75.8651473 69.5205299,76.7196404 71.1412148,77.2849791 C72.5784402,77.7862308 74.0902673,78.0402899 75.6355892,78.0402899 C79.8726635,78.0402899 83.9681469,76.1718492 87.8078529,72.4876106 C88.6886101,71.6430357 89.1879851,70.5054917 89.2146286,69.2840243 C89.2405109,68.062557 88.7906167,66.9036507 87.9479215,66.0216917 L87.9479215,66.0216917 Z M20.6815099,55.0506105 C17.1995877,53.1806438 14.4225759,50.8048479 11.8998192,47.5600627 L12.4722733,42.6482533 C15.1815346,46.8879124 17.8580624,49.600928 21.2486354,51.6173792 C21.0103666,52.7884926 20.8200561,53.9344288 20.6815099,55.0506105 Z M61.8670003,19.7821701 C66.4534849,16.6731886 72.6553256,17.0554217 75.968252,17.5681175 C76.2491503,17.6116051 76.4090113,17.7863183 76.4790454,17.8870265 C76.5490799,17.9877346 76.6586988,18.1975432 76.6031279,18.4767793 C75.9431308,21.8108284 74.1488829,27.885359 69.5479346,31.1141222 C67.877008,32.2867614 65.8216537,33.0802193 63.4321144,33.478474 C61.796966,31.755755 59.9235488,30.3282937 57.8438347,29.2174526 C59.9106075,26.6036193 61.2070032,23.8761078 61.6972432,21.0883239 C61.7741286,20.651922 61.8296994,20.2162831 61.8670003,19.7821701 Z M45.3548942,18.1998321 C45.7735774,15.8202213 47.4269958,11.1304273 53.8008772,6.45131466 C54.0300111,6.28270491 54.2659963,6.29338597 54.3870337,6.3147483 C54.50731,6.33611063 54.7333989,6.40706422 54.8917373,6.6443385 C59.2841053,13.2254615 59.2376694,18.1998321 58.8189862,20.5794429 C58.3782269,23.0811239 57.1206547,25.5652574 55.082048,27.9738599 C53.7171405,27.4649788 52.2821989,27.0751163 50.7817903,26.8096131 C49.2806206,26.5441099 47.798482,26.4189877 46.3429868,26.4296687 C45.2490815,23.4671718 44.9148961,20.7022762 45.3548942,18.1998321 L45.3548942,18.1998321 Z M31.6768932,24.4216099 C28.4553159,19.8103991 28.8427882,13.48715 29.3596718,10.1286868 C29.4030625,9.84716189 29.5781483,9.68618145 29.6786323,9.61599094 C29.7791163,9.54580043 29.9892192,9.43593703 30.2670725,9.49163163 C33.5548779,10.1454714 39.513121,11.9116782 42.7613418,16.4061594 C42.6494391,16.8265396 42.5527615,17.254549 42.4758761,17.6909509 C41.9856359,20.4794976 42.2726244,23.4870081 43.3231387,26.6509215 C40.9891698,26.9820377 38.7419826,27.6816539 36.6173556,28.7398521 C34.5087144,27.5466133 32.8476839,26.097027 31.6768932,24.4216099 Z M28.012273,91.248312 C28.0252141,91.6870027 27.8683981,92.105094 27.5684688,92.424766 C27.2685392,92.7452009 26.8620359,92.9283066 26.419754,92.9428025 L26.3710345,92.9428025 C25.4811424,92.9428025 24.7617685,92.243949 24.7336026,91.351309 C24.6224611,87.8158438 26.0094446,83.1191833 28.3213373,79.0191423 C29.2249319,79.6836633 30.1384226,80.2955413 31.0344047,80.8685095 C28.7141383,85.0379781 27.9384324,88.8992188 28.012273,91.248312 Z M66.4527237,67.9511676 C63.3293466,78.8543472 54.7219803,80.6182651 47.8053331,82.0350452 C44.967422,82.6171687 42.5154605,83.1191833 40.6900016,84.1682262 C39.3327066,82.5568963 37.2004671,81.2446391 34.7317584,79.724862 C34.4219327,79.5348899 34.1090623,79.3418661 33.7931467,79.1457903 C33.7923855,79.1457903 33.7923855,79.1450274 33.7923855,79.1450274 C33.7916243,79.1450274 33.7916243,79.1442645 33.7916243,79.1442645 C27.9658371,75.5294536 21.269189,70.8312672 22.0152064,60.0974605 C22.0289086,59.8968071 22.15223,59.7930473 22.252714,59.7411673 C22.2641327,59.7350638 22.2816413,59.7304861 22.2961047,59.7243825 C22.3181809,59.7175161 22.3402569,59.7106497 22.3623329,59.7030204 C22.3943049,59.6953909 22.4270384,59.6885245 22.4651006,59.6885245 C22.5358961,59.6885245 22.6165879,59.7068351 22.7010856,59.758715 C30.2685949,64.4507976 36.678255,67.0798899 43.484522,68.2830467 C50.2907891,69.4854406 57.2112426,69.212308 65.9244214,67.3972731 C66.0766699,67.3652295 66.1900951,67.410243 66.2685029,67.4636487 C66.2860116,67.4781446 66.3042814,67.4918777 66.3225512,67.5056105 C66.3332085,67.5155289 66.3431048,67.525447 66.3514783,67.5346023 C66.4283639,67.6177628 66.5082943,67.7573809 66.4527237,67.9511676 L66.4527237,67.9511676 Z M67.4986704,57.1692956 C67.2497444,59.8060172 66.8173588,62.2489521 66.2152161,64.4622418 C65.9236602,64.4454572 65.6260145,64.4668193 65.3291301,64.5286176 C56.9965722,66.2650697 50.4156328,66.5328618 43.9922707,65.3976067 C37.5681472,64.2623515 31.4759253,61.7553297 24.238795,57.2669519 C23.9814952,57.1074975 23.7089704,56.985427 23.4288332,56.9007406 C23.6183825,54.6149715 24.0462007,52.1705109 24.7115266,49.6077946 C26.9115166,41.1406833 31.3708737,34.9440822 37.1266266,31.766436 C37.2446192,31.7214225 37.3565217,31.6603873 37.4600507,31.5856192 C39.8945035,30.3023538 42.5527615,29.5523834 45.3655515,29.3921659 C45.4104649,29.391403 45.4561394,29.389877 45.5010528,29.3852995 C47.0501808,29.3067166 48.6449834,29.4066618 50.2740417,29.6942902 C51.9053839,29.9826818 53.4400483,30.4366313 54.8711837,31.0424058 C54.9107683,31.0607163 54.9511141,31.078264 54.9914601,31.0927597 C57.5720713,32.2051267 59.8086012,33.8149306 61.6553748,35.8481666 C61.7322604,35.9656593 61.8258931,36.0694192 61.9317058,36.1594463 C66.2479494,41.1185581 68.3208121,48.4656729 67.4986704,57.1692956 L67.4986704,57.1692956 Z M85.7859934,70.3712142 C82.5088455,73.5160541 79.0931514,75.1098363 75.6348278,75.1098363 C74.4176015,75.1098363 73.228541,74.9107089 72.1011413,74.5177947 C70.62966,74.0050988 69.278455,73.1826491 68.0673185,72.0763858 C68.5179739,71.0601493 68.9191486,69.9577007 69.2624687,68.7598843 C69.27541,68.7125821 69.2860673,68.6652797 69.297486,68.6187404 C70.3875849,69.9325237 71.7098627,70.9014577 73.1782989,71.4133907 C75.4475623,72.2030339 79.0824941,72.251099 83.5167303,67.996944 C83.8334071,67.6932939 84.2482841,67.5239211 84.6875208,67.5407058 C85.1252351,67.550624 85.533261,67.7306779 85.8362355,68.0472982 C86.1392098,68.3646813 86.3005932,68.7812466 86.2914583,69.2199374 C86.2815622,69.6586281 86.1026702,70.0675641 85.7859934,70.3712142 Z M60.3475607,53.2218427 C59.5520626,53.0806988 58.7946265,53.613231 58.6545579,54.4097406 L58.2442483,56.7412861 C58.1041797,57.5385587 58.6347655,58.2984472 59.4295024,58.4380653 C59.515523,58.4533241 59.6007821,58.4609534 59.6852798,58.4609534 C60.3810554,58.4609534 60.9976615,57.9612277 61.1225052,57.2501674 L61.5328149,54.9186219 C61.6736446,54.1221122 61.1430588,53.3622237 60.3475607,53.2218427 Z M49.9916209,53.2233685 C49.0674727,52.5283298 47.8715613,52.2078951 46.359734,51.9408659 C44.8479068,51.6730738 43.6146945,51.5639733 42.5093706,51.901193 C41.4816936,52.2139986 40.1723569,53.0608622 39.7757497,55.3176395 C39.1599046,58.8157208 41.2655008,62.1223039 44.4688082,62.6884057 C44.7892912,62.7448632 45.1097741,62.7730921 45.4294961,62.7730921 C46.6870681,62.7730921 47.9172356,62.3374531 48.9700337,61.5073741 C50.2405472,60.5041076 51.1022732,59.0354476 51.3945903,57.3714749 C51.7919588,55.1139346 50.8510634,53.8695789 49.9916209,53.2233685 Z M48.5163333,56.8625937 C48.3480988,57.8162689 47.8669937,58.6486368 47.1613221,59.2055831 C46.50437,59.7236196 45.7286642,59.9349542 44.9765569,59.8029654 C43.3604395,59.5168628 42.3190601,57.7331085 42.6540067,55.8265207 C42.8230026,54.8675048 43.1587104,54.7652709 43.3589171,54.7042357 C43.5530337,54.6447262 43.7928251,54.6210751 44.0600212,54.6210751 C44.5989807,54.6210751 45.2475591,54.7187314 45.8527466,54.825543 C46.7578638,54.9857606 47.7482399,55.198621 48.2369576,55.5663581 C48.4044307,55.6922432 48.6853292,55.9028147 48.5163333,56.8625937 L48.5163333,56.8625937 Z M32.7784108,48.349706 C31.9829127,48.2085621 31.2254766,48.7410945 31.085408,49.5376039 L30.6750984,51.8699125 C30.5350298,52.6664222 31.0656156,53.4263107 31.8611139,53.5666917 C31.9471343,53.5819505 32.0323934,53.5888169 32.11613,53.5888169 C32.8119055,53.5888169 33.4285116,53.089091 33.5541167,52.3787937 L33.9644262,50.0464851 C34.1044947,49.2499755 33.5739089,48.490087 32.7784108,48.349706 L32.7784108,48.349706 Z" id="Shape" fill="#000000"></path>
        </g>
        <g id="002-detective" transform="translate(115.000000, 208.000000)" fill-rule="nonzero">
            <path d="M62.4160766,97.4784852 C60.8818055,97.4784852 59.5054627,96.4057922 59.1789246,94.8440551 C57.6683045,87.6167297 59.5375061,75.4966736 59.9441527,73.5671996 C60.3218078,71.7781066 62.0780945,70.6329346 63.8671875,71.0098266 C65.6562805,71.3874816 66.8006896,73.1437684 66.4237977,74.9328613 C65.9492492,77.1827697 64.502716,87.9470824 65.6608582,93.4898377 C66.0346984,95.2796936 64.8864746,97.0344543 63.0966187,97.4082947 C62.8684998,97.4555969 62.6403809,97.4784852 62.4160766,97.4784852 L62.4160766,97.4784852 Z" id="Path" fill="#EFD176"></path>
            <path d="M80.3153992,97.4784852 C78.7811279,97.4784852 77.4040223,96.4057922 77.0782471,94.8440551 C75.567627,87.6159668 77.4368285,75.4959105 77.8434754,73.5664367 C78.2203674,71.7773437 79.9766541,70.6321717 81.76651,71.0098266 C83.5556031,71.3867188 84.7000121,73.1430055 84.3231201,74.9320984 C83.8485719,77.1827697 82.4012756,87.9463195 83.5594178,93.4898377 C83.933258,95.2796936 82.7857971,97.0336914 80.9959412,97.4075316 C80.7678223,97.4555969 80.5397033,97.4784852 80.3153992,97.4784852 L80.3153992,97.4784852 Z" id="Path" fill="#EFD176"></path>
            <path d="M37.6312256,82.7896117 C37.600708,82.7896117 37.5701904,82.7896117 37.5396729,82.7888488 C35.710907,82.7827453 34.2338563,81.2950135 34.2406988,79.4662477 C34.2475891,77.6420594 35.7284547,76.1672973 37.551117,76.1672973 C37.5816346,76.1665344 37.6121521,76.1672973 37.6426697,76.1672973 C44.630432,76.1672973 45.7199098,72.8271484 47.2587586,62.5656129 C47.4403381,61.3571168 47.6280213,60.1074219 47.8439332,58.8317871 C48.1498719,57.0289611 49.860382,55.8151246 51.661682,56.1210633 C53.464508,56.427002 54.6783447,58.1359863 54.3724061,59.9388123 C54.1671754,61.1518859 53.9840699,62.3695373 53.8078309,63.5475158 C53.0914307,68.3242797 52.4147033,72.8355408 50.3242492,76.3679504 C47.7676391,80.6884766 43.6149598,82.7896117 37.6312256,82.7896117 L37.6312256,82.7896117 Z" id="Path" fill="#EFD176"></path>
            <path d="M53.0838012,16.2200928 C58.4800721,19.9989318 60.5255127,27.002716 61.2503051,30.6541443 C61.5135193,31.9808961 60.6163025,33.2618713 59.2796326,33.4686279 C55.5999756,34.0362549 48.3192443,34.5092773 42.9229736,30.7312012 C37.5267029,26.9523621 35.4812621,19.9485779 34.7564697,16.2971496 C34.4932557,14.970398 35.3904725,13.6886598 36.7271424,13.482666 C40.4060363,12.9150391 47.6867676,12.4412537 53.0838012,16.2200928 L53.0838012,16.2200928 Z" id="Path" fill="#8EE2CF"></path>
            <path d="M51.2382508,27.2064209 C50.9483338,27.2064209 50.655365,27.1202088 50.3990174,26.9416809 L43.927002,22.4098205 C43.2647705,21.9459533 43.1030273,21.031952 43.5676574,20.3697205 C44.0315246,19.7067262 44.9447633,19.5457459 45.6077576,20.0096131 L52.079773,24.5414734 C52.7420043,25.0053406 52.9037477,25.919342 52.4391174,26.5815734 C52.154541,26.9889832 51.6998291,27.2064209 51.2382508,27.2064209 Z" id="Path" fill="#6FCE91"></path>
            <path d="M71.0113525,13.0592346 C67.2325135,18.4555055 67.7062988,25.7362365 68.2739258,29.4158936 C68.4806824,30.7525635 69.7608947,31.6497803 71.0884094,31.3858031 C74.7398377,30.6617736 81.7436219,28.616333 85.521698,23.2192992 C89.3005371,17.8230285 88.8275146,10.5422973 88.2591248,6.86340332 C88.0531311,5.52597051 86.7721559,4.6295166 85.4454041,4.89273066 C81.7932129,5.61752324 74.7901916,7.66296387 71.0113525,13.0592346 Z" id="Path" fill="#8EE2CF"></path>
            <path d="M75.9994508,22.8401184 C75.7095336,22.8401184 75.4165648,22.7546691 75.1609803,22.5753785 C74.4979859,22.1115113 74.3370057,21.1982727 74.8008729,20.5352783 L79.3327332,14.0632629 C79.7966004,13.4002686 80.7098389,13.2392883 81.3728332,13.7031555 C82.0350646,14.1670227 82.1968078,15.0802613 81.7321777,15.7432557 L77.2003174,22.2152711 C76.915741,22.6226807 76.4610291,22.8401184 75.9994508,22.8401184 Z" id="Path" fill="#6FCE91"></path>
            <path d="M71.1799621,15.4273986 C72.3236084,21.9154357 68.8179016,28.3134461 66.7480469,31.4079285 C65.9965516,32.5325012 64.4561768,32.8041076 63.3651734,32.0045471 C60.3614807,29.8049926 54.8789979,24.9916076 53.7345887,18.5035705 C52.5909424,12.0155334 56.0966492,5.61676016 58.1665039,2.52227773 C58.9187621,1.39846797 60.458374,1.12686152 61.5501404,1.92565918 C64.5530701,4.12597656 70.036316,8.93936152 71.1799621,15.4273986 Z" id="Path" fill="#8EE2CF"></path>
            <path d="M63.141632,22.3205566 C62.4443055,22.3205566 61.8263244,21.8208312 61.7004395,21.1097717 L60.3286742,13.3293152 C60.1882934,12.5320434 60.7208252,11.7729188 61.517334,11.6325379 C62.3146057,11.492157 63.0737305,12.0239258 63.2141113,12.8204346 L64.5858766,20.6016541 C64.7262574,21.3981629 64.1944885,22.1580506 63.3979797,22.2984314 C63.3117676,22.3136902 63.2263184,22.3205566 63.141632,22.3205566 Z" id="Path" fill="#6FCE91"></path>
            <path d="M64.1220094,26.4038086 C77.5802613,24.0310668 89.0693664,32.9338074 93.1892395,48.7579346 C97.4746703,65.2175902 93.3906555,78.779602 73.9608766,82.2052002 C54.5318604,85.6307984 46.0556031,74.2843629 44.4526672,57.3509217 C42.9122926,41.0728455 50.6637574,28.7773133 64.1220094,26.4038086 Z" id="Path" fill="#F7EF87"></path>
            <g id="Group" transform="translate(44.140625, 29.101562)" fill="#EFD176">
                <path d="M12.1826172,0.119781445 C3.63922109,5.10482793 -0.900268555,15.4441834 0.312042188,28.2493592 C1.91040039,45.135498 10.345459,56.4643859 29.6600342,53.1303406 C3.70407109,42.9267883 5.42602539,15.9568787 12.1826172,0.119781445 Z" id="Path"></path>
                <path d="M20.9823609,18.2876586 C20.6916809,18.2876586 20.3987121,18.2014465 20.1431273,18.0221559 C19.4808961,17.5582887 19.3199158,16.64505 19.783783,15.9820557 L21.7323303,13.1996154 C21.9551086,12.8807068 22.2953797,12.664032 22.6776123,12.5968934 C23.0606078,12.5289918 23.4542848,12.6167297 23.7724305,12.839508 L26.5556336,14.7888184 C27.2186279,15.2526855 27.3796082,16.165924 26.9149781,16.8281555 C26.4511109,17.49115 25.5378723,17.6521301 24.8756408,17.1882629 L23.2917785,16.0797119 L22.1832275,17.6628113 C21.8986512,18.069458 21.4439393,18.2876586 20.9823609,18.2876586 L20.9823609,18.2876586 Z" id="Path"></path>
                <path d="M34.5092773,15.9019471 C34.2193604,15.9019471 33.9263916,15.8164979 33.6708068,15.637207 C33.0078125,15.1733398 32.8468322,14.2601014 33.3106994,13.597107 L35.2600098,10.8139039 C35.723877,10.1509094 36.6371154,9.9899293 37.3001098,10.4537965 L40.0833129,12.4031066 C40.7455445,12.8669738 40.9065246,13.7802125 40.4426574,14.4424438 C39.9787902,15.1054383 39.0655518,15.2664184 38.4025574,14.8025512 L36.819458,13.6940002 L35.710907,15.2770996 C35.4255676,15.6845094 34.9716188,15.9019471 34.5092773,15.9019471 Z" id="Path"></path>
                <path d="M7.45468145,20.6726074 C7.16476445,20.6726074 6.8717957,20.5871582 6.61621094,20.4078674 C5.9532166,19.9440002 5.79223633,19.0307617 6.25610352,18.3677674 L8.20541387,15.5845643 C8.42819219,15.2664184 8.76846309,15.0497437 9.1506957,14.981842 C9.53292852,14.9139404 9.92736816,15.0016785 10.2455139,15.2244568 L13.028717,17.1737672 C13.6909484,17.6376344 13.8526916,18.5508729 13.3880615,19.2138672 C12.9241943,19.8760986 12.0109559,20.0370789 11.3479613,19.5732117 L9.76486211,18.4646605 L8.65631094,20.048523 C8.37097168,20.4551697 7.91702266,20.6726074 7.45468145,20.6726074 Z" id="Path"></path>
                <path d="M32.635498,44.8265076 C32.3455811,44.8265076 32.0526123,44.7402953 31.7970275,44.5610047 C31.1340332,44.0971375 30.9730529,43.1838988 31.4369201,42.5216676 L33.3862305,39.7384645 C33.8500977,39.0754699 34.7633361,38.9144898 35.4263305,39.378357 L38.2095336,41.3269043 C38.8717652,41.7915344 39.0327453,42.704773 38.5688781,43.3670043 C38.1050109,44.0299988 37.1910096,44.1909789 36.5287781,43.7271117 L34.9456787,42.6185607 L33.8371277,44.2016602 C33.5517883,44.6083068 33.0978395,44.8265076 32.635498,44.8265076 L32.635498,44.8265076 Z" id="Path"></path>
                <path d="M19.1085816,47.2114563 C18.8179016,47.2114563 18.5249328,47.126007 18.269348,46.9467164 C17.6071168,46.4828492 17.4453734,45.5696105 17.9100037,44.9066162 L19.858551,42.1234131 C20.3231813,41.4611816 21.2356566,41.2994385 21.8986512,41.7640686 L24.6818543,43.712616 C25.3448486,44.1764832 25.5058289,45.0897217 25.0419617,45.752716 C24.5780945,46.4149475 23.664093,46.5759277 23.0018615,46.1120605 L21.4179992,45.0035096 L20.3094482,46.5873719 C20.0248719,46.9940186 19.57016,47.2114563 19.1085816,47.2114563 L19.1085816,47.2114563 Z" id="Path"></path>
            </g>
            <path d="M59.2292785,65.4434203 C58.7806701,62.8982543 55.8265686,61.2922668 52.6306152,61.8553162 C49.4354248,62.4183654 47.2084045,64.9383545 47.6570129,67.4835205 C48.1056213,70.0279236 51.0597229,71.634674 54.2549133,71.0716248 C57.4508668,70.5078125 59.6778869,67.9885863 59.2292785,65.4434203 L59.2292785,65.4434203 Z" id="Path" fill="#EDA1AB"></path>
            <path d="M79.0275574,61.9476318 C79.4761658,64.492035 82.4302674,66.0987854 85.6262207,65.5357361 C88.822174,64.9719238 91.0484314,62.4526977 90.599823,59.9075316 C90.1512146,57.3623656 87.1971131,55.7563781 84.0019227,56.3194275 C80.8059691,56.8832398 78.578949,59.4024658 79.0275574,61.9476318 L79.0275574,61.9476318 Z" id="Path" fill="#EDA1AB"></path>
            <path d="M37.2375488,83.0810547 C36.5333557,83.0810547 35.8306885,82.8125 35.2935791,82.2753906 L26.8829346,73.8647461 C25.8094787,72.7912902 25.8094787,71.0510254 26.8829346,69.9768066 C27.9563904,68.9033508 29.6974182,68.9033508 30.770874,69.9768066 L39.1815186,78.3882141 C40.2549744,79.4616699 40.2549744,81.2019348 39.1815186,82.2753906 C38.6444092,82.8125 37.9409789,83.0810547 37.2375488,83.0810547 Z" id="Path" fill="#E1B89A"></path>
            <path d="M33.5151672,68.9575195 C33.5151672,73.1834412 30.0895691,76.6090393 25.8636475,76.6090393 C21.6377258,76.6090393 18.2113648,73.1834412 18.2113648,68.9575195 C18.2113648,64.7315979 21.6377258,61.3059998 25.8636475,61.3059998 C30.0895691,61.3059998 33.5151672,64.7315979 33.5151672,68.9575195 Z" id="Path" fill="#7ACEFA"></path>
            <path d="M23.3909607,61.7149354 C22.1122742,62.1498107 20.9327697,62.9287719 20.0019836,64.0388488 C19.8448182,64.2257691 19.6998596,64.4187928 19.5632934,64.6156311 L30.2055359,75.2571105 C30.758667,74.8756408 31.2713623,74.4155883 31.7245484,73.8761902 C32.3509217,73.1300354 32.8079223,72.2984314 33.1047059,71.4286805 L23.3909607,61.7149354 Z" id="Path" fill="#A3DEFE"></path>
            <path d="M84.248352,70.2728271 C81.2042236,70.2728271 78.012085,69.4297791 75.0091553,67.7818299 C73.4062195,66.9021605 72.8195191,64.8895264 73.6991883,63.2865906 C74.5788574,61.6828918 76.5922547,61.0969543 78.1951904,61.9766234 C81.2728883,63.6657715 84.5108031,64.1067504 87.0788574,63.1858826 C89.3127441,62.3847961 91.0186768,60.5453492 92.1478271,57.7194215 C92.8268434,56.0218811 94.7540283,55.1956176 96.4515686,55.8746338 C98.149109,56.5528869 98.9753723,58.4800721 98.2971191,60.1776123 C95.9747314,65.9858703 92.1302795,68.408966 89.313507,69.4190979 C87.7189637,69.9905395 86.0084533,70.2728271 84.248352,70.2728271 L84.248352,70.2728271 Z" id="Path" fill="#EFD176"></path>
            <path d="M42.7726746,94.8982238 C42.7726746,92.8901672 38.79776,91.2612914 33.894348,91.2612914 C28.9909363,91.2612914 25.0160217,92.8901672 25.0160217,94.8982238 C25.0160217,96.9070434 28.9909363,98.5351562 33.894348,98.5351562 C38.79776,98.5351562 42.7726746,96.9070434 42.7726746,94.8982238 L42.7726746,94.8982238 Z" id="Path" fill="#E1B89A"></path>
            <path d="M19.2214965,86.4532471 C19.2214965,84.4444275 15.246582,82.8163146 10.3431701,82.8163146 C5.4397582,82.8163146 1.46484375,84.4444275 1.46484375,86.4532471 C1.46484375,88.4613037 5.4397582,90.0901795 10.3431701,90.0901795 C15.246582,90.0901795 19.2214965,88.4613037 19.2214965,86.4532471 Z" id="Path" fill="#E1B89A"></path>
            <path d="M81.7100525,54.6310426 C81.5696717,53.8345336 80.809784,53.3027648 80.0132752,53.4431457 C79.2160035,53.5835266 78.6842346,54.3434143 78.8246154,55.139923 L79.1847229,57.183075 C79.3106078,57.8941346 79.9285889,58.3938598 80.6259156,58.3938598 C80.7098389,58.3938598 80.796051,58.3869934 80.8815002,58.3717346 C81.6787719,58.2313537 82.2105408,57.471466 82.07016,56.6749572 L81.7100525,54.6310426 Z M33.894348,89.7972107 C28.754425,89.7972107 23.5511779,91.5489197 23.5511779,94.8989867 C23.5511779,98.248291 28.754425,100 33.894348,100 C39.0342713,100 44.2375184,98.2475281 44.2375184,94.8989867 C44.2375184,91.5496826 39.0342713,89.7972107 33.894348,89.7972107 Z M33.894348,97.0703125 C28.779602,97.0703125 26.4808654,95.3437805 26.4808654,94.8982238 C26.4808654,94.4526672 28.779602,92.7261352 33.894348,92.7261352 C39.0090941,92.7261352 41.3078309,94.4526672 41.3078309,94.8982238 C41.3078309,95.3437805 39.0090941,97.0703125 33.894348,97.0703125 Z M96.9947814,54.5135498 C96.5980529,54.3548584 96.1921691,54.2549133 95.7862854,54.206848 C95.5207824,52.3353576 95.1271057,50.3852844 94.6067811,48.3886719 C92.5003051,40.297699 88.5047912,33.7989807 83.0513,29.5967102 C82.6522828,29.2892457 82.2471619,28.9970398 81.8367004,28.717041 C83.8455199,27.3887635 85.483551,25.8285523 86.7218018,24.0600586 C88.2621766,21.8605041 89.2906189,19.1864014 89.7789002,16.1132813 C89.9063109,15.3144836 89.3608094,14.5637512 88.5620117,14.4371033 C87.76474,14.3112184 87.0124816,14.8551941 86.8858338,15.6539918 C86.467743,18.2838439 85.6048584,20.5467225 84.3223572,22.3793029 C83.0566406,24.1874695 81.2576293,25.7492066 78.9726258,27.0324707 C76.6662598,25.8796691 74.2240906,25.1243592 71.685791,24.7779846 C72.8317262,21.3829041 73.149109,18.1587219 72.6226807,15.172577 C72.5387574,14.6949768 72.4311828,14.226532 72.3068238,13.7664795 C73.8517762,11.6241455 77.5955199,7.94372559 85.7307434,6.3293457 C85.97641,6.28051758 86.225891,6.33316035 86.4326477,6.47735586 C86.6386414,6.62231445 86.7736816,6.83822637 86.8118285,7.08618164 C86.9148254,7.75375371 86.9979859,8.43505859 87.058258,9.11178594 C87.1299744,9.91745 87.841034,10.5125428 88.646698,10.4415895 C89.4523621,10.369873 90.0482178,9.65805059 89.9757385,8.85238652 C89.9101258,8.11309805 89.8200988,7.36846914 89.7071838,6.63986211 C89.5462035,5.59463496 88.9801025,4.68444824 88.1126404,4.07791133 C87.2459412,3.47061152 86.1968994,3.24935918 85.1600646,3.45535273 C81.5612793,4.16946406 75.2769471,6.02111816 71.1082459,10.6025695 C68.8545227,5.99288945 64.930725,2.58636484 62.4160766,0.743866016 C61.5631104,0.119018555 60.5194092,-0.12435918 59.477234,0.0602722656 C58.4350586,0.243377734 57.5370789,0.829315234 56.9496154,1.70822148 C55.216217,4.29916387 52.6939393,8.84246836 52.1530152,13.9450074 C46.6682434,11.0656738 40.1298523,11.4753723 36.5036012,12.0353699 C35.458374,12.19635 34.5489502,12.7624512 33.9416504,13.6299133 C33.3351135,14.4966125 33.1138611,15.5448914 33.3198547,16.5824891 C34.1125488,20.5780029 36.3052367,27.8854371 42.0829773,31.930542 C43.8514709,33.1695557 45.9243773,34.0751648 48.2666016,34.6366883 C47.9766846,35.0395203 47.6959229,35.4530334 47.4258422,35.8787537 C43.7385559,41.6923523 42.2065734,49.1653441 42.9946898,57.4890137 C43.3425902,61.1694336 43.9941406,64.4866943 44.9417113,67.4354553 C43.7255859,73.3291625 42.3057557,74.7024535 37.6472473,74.7024535 L37.6274109,74.7024535 C37.6068115,74.7024535 37.5877381,74.7024535 37.5679016,74.7024535 L34.5581055,71.6934203 C35.6262207,68.2838439 34.626007,64.4096375 31.7230225,61.9735719 C27.872467,58.7425232 22.1107482,59.2468262 18.8796996,63.0973816 C17.314148,64.9627686 16.5687561,67.325592 16.7816162,69.7517395 C16.9937133,72.177124 18.1381227,74.3751525 20.0035096,75.9407043 C21.6606141,77.3307801 23.7098693,78.073883 25.8476258,78.073883 C26.1161805,78.073883 26.3870238,78.0624391 26.6578674,78.0387879 C27.3254395,77.9808045 27.9754639,77.848816 28.6003113,77.6535035 L34.2575074,83.3106994 C35.054016,84.1064453 36.1122131,84.5451355 37.2375488,84.5451355 C37.8044129,84.5451355 38.3537293,84.4329834 38.8618469,84.2208863 C44.2832947,83.9561463 48.3688355,81.8634033 51.0231018,77.9922484 C51.7097473,78.6888123 52.4360656,79.3319703 53.2051086,79.9186707 C54.4845582,80.8929443 55.8738709,81.7008973 57.3646545,82.3486328 C57.0678711,86.2472535 56.941223,91.2971496 57.7445984,95.1431273 C58.2046508,97.3449707 60.1692199,98.942566 62.4160766,98.942566 C62.7433777,98.942566 63.0729676,98.9082336 63.3964539,98.8410949 C65.9744262,98.3024598 67.6330566,95.7672119 67.0944215,93.1892395 C66.6725158,91.1689758 66.5763855,88.1027223 66.8106078,84.2689514 C67.0120238,84.272766 67.2119141,84.2788695 67.4156189,84.2788695 C69.5571898,84.2788695 71.825409,84.0682984 74.2149354,83.6471559 C74.5429992,83.5891723 74.8657227,83.5273742 75.1861572,83.4640504 C74.9542236,87.1498107 74.913025,91.64505 75.6439209,95.1431273 C76.1039734,97.3449707 78.0685426,98.942566 80.3153992,98.942566 C80.6427002,98.942566 80.97229,98.9082336 81.2957764,98.8410949 C82.5439453,98.5801697 83.6166383,97.8485107 84.3154906,96.7811584 C85.0135803,95.7138063 85.2546691,94.4381715 84.9937439,93.1892395 C84.2071533,89.4241332 84.7297668,83.153534 85.0799561,79.9713135 C86.2762451,79.2991639 87.3817443,78.5568238 88.3865355,77.7397156 C91.6496277,75.0862121 93.9163207,71.6537477 95.1347352,67.5369262 C96.8261719,65.9576416 98.4397889,63.7664795 99.6566773,60.7200623 C100.634003,58.2756043 99.4400023,55.4916383 96.9947814,54.5135498 Z M21.8864441,73.6968994 C20.6207275,72.6348877 19.8440551,71.143341 19.6998596,69.4969178 C19.5556641,67.8504943 20.061493,66.2467957 21.1235047,64.9810791 C22.3457336,63.5246277 24.1012574,62.7731324 25.868225,62.7731324 C27.2720336,62.7731324 28.6834717,63.2476807 29.8400879,64.2181396 C32.4531555,66.4108277 32.7949523,70.3208924 30.6022645,72.9347229 C28.4095764,75.5477906 24.4995117,75.8895875 21.8864441,73.6968994 L21.8864441,73.6968994 Z M38.1454469,81.2400818 C37.902832,81.4826965 37.5808715,81.6162109 37.2375488,81.6162109 C36.8949891,81.6162109 36.5722656,81.4826965 36.3296508,81.2400818 L31.3377381,76.2481689 C31.8870545,75.8338928 32.3944092,75.3570557 32.8468322,74.8176574 C32.9536438,74.6910096 33.0551148,74.5620727 33.153534,74.4308473 L35.9695434,77.2476195 C35.9718322,77.2499084 35.9741211,77.2514344 35.97641,77.253723 L38.1454469,79.423523 C38.6459352,79.9240113 38.6459352,80.7388305 38.1454469,81.2400818 Z M59.3841553,3.33633418 C59.5237732,3.12805176 59.7373963,2.98843379 59.9853516,2.94494629 C60.2333068,2.9006957 60.4820252,2.9586793 60.6842041,3.10745234 C63.6161805,5.25512695 68.6904906,9.7442627 69.7372438,15.6814574 C70.213318,18.3815002 69.847107,21.3638305 68.6553955,24.5590211 C67.085266,24.5437621 65.4861449,24.6757508 63.8679504,24.96109 C62.2482301,25.2471924 60.7009887,25.6690979 59.2308045,26.2207031 C57.0175172,23.6259461 55.6533813,20.9487914 55.177307,18.2487488 C54.1305543,12.3115539 57.3638916,6.35757441 59.3841553,3.33633418 Z M43.7629699,29.5310975 C41.6435242,28.0464172 37.841034,24.3164062 36.1938477,16.0118104 C36.1450195,15.7653809 36.1968994,15.5158996 36.3418578,15.3099061 C36.4860535,15.1031494 36.7027283,14.9688721 36.9506836,14.930725 C45.1477051,13.6650086 49.9244689,15.8432008 52.1087646,17.3278809 C52.1492004,17.8024293 52.2087098,18.2792664 52.292633,18.7576293 C52.8190613,21.7437744 54.2205811,24.6643066 56.4582824,27.4627686 C54.1915895,28.6567688 52.154541,30.2017211 50.3814697,32.0739746 C47.7951051,31.6497803 45.5711365,30.7968141 43.7629699,29.5310975 Z M41.3970947,80.9661865 C41.5855408,79.7203064 41.217041,78.4080506 40.2893066,77.432251 C43.7721252,76.852417 45.5841064,75.0038146 46.7468262,71.9078064 C47.4258422,73.2681273 48.1895447,74.520874 49.0364074,75.6645203 C47.3335266,78.5179139 44.8165895,80.2658082 41.3970947,80.9661865 L41.3970947,80.9661865 Z M62.7983094,95.9739686 C62.6716613,95.9999084 62.5427246,96.0136414 62.4160766,96.0136414 C61.5493773,96.0136414 60.7910156,95.3956604 60.6124879,94.5442199 C59.9288941,91.2704469 59.9906922,86.9277953 60.2294922,83.3595275 C61.3960266,83.682251 62.6159668,83.9195252 63.8877869,84.07135 C63.6978148,87.2047424 63.6505127,91.0308838 64.2272949,93.7896729 C64.4348145,94.7860719 63.7931824,95.7656859 62.7983094,95.9739686 Z M81.8634033,95.1774598 C81.5933227,95.59021 81.1790467,95.8732605 80.6968689,95.9739686 C80.5702209,95.9999084 80.4420471,96.0136414 80.3153992,96.0136414 C79.4479371,96.0136414 78.6895752,95.3956604 78.5118104,94.5449828 C77.7862549,91.0720824 77.9014588,86.3937379 78.1707764,82.7568055 C79.5143127,82.384491 80.7868957,81.9526672 81.9869996,81.4605713 C81.6642762,85.0311279 81.3941955,90.2870178 82.1258545,93.7896729 C82.2265625,94.2718506 82.133484,94.7647094 81.8634033,95.1774598 Z M76.4808654,80.1757812 C76.4770508,80.1765441 76.4732361,80.177307 76.4694215,80.1780701 C75.5828857,80.3993225 74.6620178,80.5938721 73.7068176,80.7624816 C65.8622742,82.145691 59.5619201,81.0775758 54.9804688,77.5878906 C53.8856506,76.7539979 52.8862,75.7827758 51.9813537,74.6780395 C51.9462586,74.6284484 51.9073486,74.5819092 51.8669129,74.5368957 C50.2151488,72.4822998 48.8868713,69.971466 47.8874207,67.0181273 C47.8652953,66.9197082 47.833252,66.8243408 47.7920531,66.7327881 C46.8765258,63.9442443 46.2471008,60.7681273 45.9114074,57.2128297 C45.1850891,49.5422363 46.5644836,42.7078246 49.9000549,37.4473572 C50.5340576,36.4471436 51.2329102,35.5171203 51.990509,34.6580506 C52.0095824,34.638977 52.0263672,34.6183777 52.0446777,34.5985412 C55.2131652,31.0340881 59.4161988,28.7208557 64.3760682,27.8465271 C66.114807,27.5398254 67.8268434,27.4314881 69.4976807,27.5169373 C69.5045471,27.5177002 69.5114137,27.5177002 69.5182801,27.5184631 C73.777008,27.7404785 77.7702332,29.2251586 81.2629699,31.9175721 C86.1968994,35.7192992 89.8300172,41.670227 91.771698,49.1271973 C92.2782898,51.072693 92.6582336,52.9655457 92.9077148,54.774475 C91.9776916,55.2886963 91.2124633,56.1141969 90.7875061,57.1762086 C89.8208617,59.5954895 88.4063721,61.1534119 86.5844727,61.807251 C84.4108582,62.5862121 81.6101074,62.1795654 78.8993836,60.6925965 C77.7809143,60.0791932 76.4907836,59.9372863 75.2662658,60.294342 C74.0409852,60.6506348 73.0285645,61.4631652 72.4151611,62.5816346 C71.8009949,63.7001037 71.6598512,64.9902344 72.0169066,66.2147521 C72.3731994,67.440033 73.1857301,68.4524535 74.3041992,69.065857 C77.4894715,70.8137512 80.9280395,71.7376709 84.248352,71.7376709 C86.1976623,71.7376709 88.0683898,71.4218141 89.8078918,70.7977295 C90.1237488,70.6848145 90.4510498,70.5551148 90.7875061,70.4071045 C88.130951,75.1922607 83.3404541,78.4652711 76.4808654,80.1757813 L76.4808654,80.1757812 Z M96.936798,59.6336365 C94.8173523,64.9360656 91.3528441,67.1318055 88.8191223,68.0397033 C87.397766,68.5493469 85.8604432,68.8079834 84.248352,68.8079834 C81.4193727,68.8079834 78.4683227,68.0091857 75.7141113,66.4970398 C75.2815246,66.2597656 74.9679566,65.8683777 74.8298645,65.3953553 C74.6917725,64.9215699 74.7467041,64.4233703 74.9839783,63.9907836 C75.2212523,63.5581971 75.6126404,63.2446289 76.0856629,63.1065369 C76.2565613,63.0569457 76.4312744,63.0325316 76.6044617,63.0325316 C76.9111633,63.0325316 77.2140504,63.1095887 77.4902344,63.2606506 C80.9356689,65.1512146 84.6107482,65.6265258 87.5732422,64.5645141 C90.2198791,63.6154176 92.2164918,61.4959717 93.5081482,58.2633973 C93.8865662,57.3181152 94.9630738,56.8572998 95.9075928,57.2341918 C96.8528748,57.6118469 97.3144531,58.6883545 96.936798,59.6336365 L96.936798,59.6336365 Z M10.3431701,81.3514709 C5.20324707,81.3514709 2.84217094e-14,83.103943 2.84217094e-14,86.4532471 C2.84217094e-14,89.8025512 5.20324707,91.5550232 10.3431701,91.5550232 C10.6033324,91.5550232 10.8604432,91.5504455 11.114502,91.5420531 C11.9232178,91.5153504 12.5572205,90.8378602 12.5305176,90.0291443 C12.5038146,89.2204285 11.8225098,88.5864258 11.0176086,88.6138916 C10.7955934,88.6215211 10.5705262,88.6253357 10.3431701,88.6253357 C5.22842402,88.6253357 2.9296875,86.8988037 2.9296875,86.4532471 C2.9296875,86.0076904 5.22842402,84.2811584 10.3431701,84.2811584 C15.4579162,84.2811584 17.7566527,86.0076904 17.7566527,86.4532471 C17.7566527,86.5104676 17.629242,86.8049621 17.0074463,87.1955871 C16.3230896,87.625885 16.1170959,88.5307313 16.5473938,89.2150879 C16.9784547,89.9002074 17.8825379,90.1062012 18.5668945,89.6759033 C20.3186035,88.5742188 20.6863402,87.3153688 20.6863402,86.4532471 C20.6863402,83.103943 15.4830934,81.3514709 10.3431701,81.3514709 L10.3431701,81.3514709 Z M57.0907594,58.972168 C56.9503785,58.1756592 56.1912537,57.6438904 55.393982,57.7842713 C54.597473,57.9246521 54.0649414,58.6845398 54.2053223,59.4810486 L54.5661926,61.5242004 C54.6913146,62.23526 55.3092957,62.7349854 56.0066223,62.7349854 C56.0913086,62.7349854 56.1767578,62.7273559 56.2629699,62.7128602 C57.0594787,62.5724793 57.5912477,61.8125916 57.4508668,61.0153199 L57.0907594,58.972168 Z M77.6031494,52.2254943 C77.7694703,52.2254943 77.9388428,52.1965027 78.1036377,52.1369934 L81.7443848,50.8117676 C82.5042725,50.5348205 82.8964234,49.6940613 82.6202393,48.9341736 C82.3432922,48.173523 81.502533,47.782135 80.7426453,48.0583191 L77.1018982,49.3835449 C76.3412477,49.660492 75.9498596,50.5012512 76.2260438,51.2611389 C76.4427186,51.8554688 77.004242,52.2254943 77.6031494,52.2254943 Z M70.7847596,57.9093934 C69.9150086,57.6446533 68.9796447,57.5889588 68.0793762,57.7476502 C67.1798707,57.9063416 66.3200379,58.2786561 65.5929566,58.8241578 C64.945984,59.3101502 64.8155213,60.2287293 65.3015137,60.875702 C65.5891418,61.2586975 66.0285949,61.4608766 66.4733887,61.4608766 C66.7793273,61.4608766 67.088318,61.3647461 67.3522949,61.1671447 C67.717743,60.8924865 68.1335449,60.7124328 68.5882568,60.6323242 C69.0437316,60.5529785 69.4953918,60.5796814 69.9325563,60.7124328 C70.7061768,60.9474182 71.5248107,60.5110168 71.760559,59.7366332 C71.9955445,58.9630127 71.559143,58.1443787 70.7847596,57.9093934 L70.7847596,57.9093934 Z M56.9511414,54.1687012 L53.0776977,54.1687012 C52.2682189,54.1687012 51.6128539,54.8248291 51.6128539,55.6335449 C51.6128539,56.4422607 52.2682189,57.0983887 53.0776977,57.0983887 L56.9511414,57.0983887 C57.7606201,57.0983887 58.4159852,56.4422607 58.4159852,55.6335449 C58.4159852,54.8248291 57.7606201,54.1687012 56.9511414,54.1687012 Z" id="Shape" fill="#000000"></path>
        </g>
        <g id="001-singing" transform="translate(372.000000, 208.000000)" fill-rule="nonzero">
            <path d="M41.1735535,98.5351562 C39.6766662,98.5351562 38.3331299,97.4884033 38.0149842,95.9648133 C36.5409852,88.9114379 38.3651734,77.0851135 38.761902,75.2021789 C39.1296387,73.4565734 40.8439637,72.3396301 42.5895691,72.707367 C44.3351746,73.0751037 45.4528809,74.7894287 45.0843811,76.5350342 C44.621277,78.7307738 43.209076,89.2333984 44.3397521,94.6434021 C44.7044373,96.3897705 43.5844422,98.1010437 41.8380738,98.4664918 C41.6152953,98.512268 41.3925172,98.5351562 41.1735535,98.5351562 L41.1735535,98.5351562 Z" id="Path" fill="#EFD176"></path>
            <path d="M60.7627869,98.5351562 C59.500885,98.5351562 58.3030701,97.7912902 57.7827453,96.5553283 C54.4105529,88.5345459 54.2053223,78.8848877 57.3051453,74.1088867 C58.2771301,72.6127625 60.2775574,72.1870422 61.7744445,73.1582641 C63.2705688,74.130249 63.697052,76.1306762 62.7250672,77.6275635 C61.2640381,79.8782348 60.7841492,87.0224 63.7397766,94.0513611 C64.4309998,95.6962586 63.6581422,97.5898742 62.0132445,98.2810975 C61.604309,98.4535217 61.1801148,98.5351562 60.7627869,98.5351562 L60.7627869,98.5351562 Z" id="Path" fill="#EFD176"></path>
            <path d="M20.1957703,66.3360596 C15.9095764,66.3360596 11.8232727,64.5980836 8.56018066,61.3563537 C7.29446406,60.0990295 7.28836055,58.0535889 8.54568477,56.7878723 C9.80377188,55.5221559 11.8492127,55.5152893 13.1149293,56.7733766 C15.3617859,59.0057373 18.1793213,60.0936891 21.0479736,59.8365783 C24.4491578,59.5321656 27.7084352,57.3799133 30.2268982,53.7773133 C31.2484742,52.3147582 33.2626344,51.9577027 34.7251893,52.9792785 C36.1877441,54.0016174 36.5447998,56.0157775 35.5232238,57.4783324 C31.8939209,62.6716613 26.9577027,65.7943727 21.6247559,66.2727355 C21.1463928,66.3146973 20.6695557,66.3360596 20.1957703,66.3360596 L20.1957703,66.3360596 Z" id="Path" fill="#EFD176"></path>
            <path d="M42.0875549,14.4821168 C46.6331482,19.02771 47.4113465,26.1039734 47.4891662,29.7363281 C47.5173949,31.0562133 46.4385986,32.1350098 45.1187133,32.1067811 C41.4871215,32.0289611 34.4100953,31.25 29.864502,26.7044066 C25.3189086,22.1588135 24.5399475,15.08255 24.4621277,11.4501953 C24.4338988,10.1303102 25.5134582,9.05151367 26.8333436,9.07974238 C30.4649354,9.1575623 37.5419617,9.93576055 42.0875549,14.4821168 Z" id="Path" fill="#8EE2CF"></path>
            <path d="M38.7016297,24.7840881 C38.3270264,24.7840881 37.9516602,24.6406555 37.6663207,24.3545531 L32.2143555,18.9033508 C31.6421508,18.3311463 31.6421508,17.4034119 32.2143555,16.8319703 C32.7865602,16.2597656 33.7135314,16.2597656 34.2857361,16.8319703 L39.7377014,22.2831727 C40.3099061,22.8553771 40.3099061,23.7831115 39.7377014,24.3545531 C39.4515992,24.6406555 39.0769959,24.7840881 38.7016297,24.7840881 Z" id="Path" fill="#6FCE91"></path>
            <path d="M59.8510742,14.4821168 C55.3054809,19.02771 54.5265197,26.1039734 54.4487,29.7363281 C54.4212342,31.0562133 55.5000305,32.1350098 56.8191527,32.1067811 C60.4515076,32.0289611 67.5277711,31.25 72.0741271,26.7044066 C76.6189574,22.1588135 77.3979187,15.08255 77.4757385,11.4501953 C77.5039672,10.1303102 76.4251709,9.05151367 75.1052855,9.07974238 C71.4736937,9.1575623 64.3966676,9.93576055 59.8510742,14.4821168 L59.8510742,14.4821168 Z" id="Path" fill="#8EE2CF"></path>
            <path d="M63.2362365,24.7840881 C62.8616332,24.7840881 62.4870301,24.6406555 62.2009277,24.3545531 C61.628723,23.7823486 61.628723,22.8553771 62.2009277,22.2831727 L67.6521301,16.8319703 C68.2243348,16.2597656 69.1520691,16.2597656 69.7235107,16.8319703 C70.2957152,17.4034119 70.2957152,18.3311463 69.7235107,18.9033508 L64.2723084,24.3545531 C63.9862061,24.6406555 63.6116027,24.7840881 63.2362365,24.7840881 Z" id="Path" fill="#6FCE91"></path>
            <path d="M59.6122742,16.7861938 C59.6122742,23.2139588 55.1582336,28.7689209 52.6451111,31.3919066 C51.7318727,32.3455811 50.2059938,32.3455811 49.2927551,31.3919066 C46.7796326,28.7689209 42.3263551,23.2147217 42.3263551,16.7861938 C42.3263551,10.357666 46.7796326,4.80270391 49.2927551,2.17971797 C50.2059938,1.22680664 51.7318727,1.22680664 52.6451111,2.17971797 C55.1589965,4.80270391 59.6122742,10.357666 59.6122742,16.7861938 Z" id="Path" fill="#8EE2CF"></path>
            <path d="M50.9689332,22.1054078 C50.1602172,22.1054078 49.5040895,21.4500428 49.5040895,20.6405641 L49.5040895,12.9310607 C49.5040895,12.1223449 50.1602172,11.466217 50.9689332,11.466217 C51.7784119,11.466217 52.433777,12.1223449 52.433777,12.9310607 L52.433777,20.6405641 C52.433777,21.4500428 51.7784119,22.1054078 50.9689332,22.1054078 Z" id="Path" fill="#6FCE91"></path>
            <path d="M50.9689332,26.1383057 C64.3043518,26.1383057 73.8365174,36.6409301 75.114441,52.545166 C76.4434814,69.0887451 70.2201844,81.4285277 50.9689332,81.4285277 C31.7176818,81.4285277 25.4943848,69.0887451 26.8241883,52.545166 C28.1013488,36.6409301 37.6342773,26.1383057 50.9689332,26.1383057 Z" id="Path" fill="#F7EF87"></path>
            <g id="Group" transform="translate(26.562500, 27.343750)" fill="#EFD176">
                <path d="M16.4352418,0.180816602 C7.38067617,3.5232543 1.26647949,12.6899719 0.261688281,25.201416 C-1.06430059,41.6984559 5.12237539,54.0153504 24.2477418,54.083252 C1.03378301,39.8803711 7.25860586,14.2547607 16.4352418,0.180816602 Z" id="Path"></path>
                <path d="M26.7509461,19.1871643 C26.3763428,19.1871643 26.0017395,19.0444945 25.7156371,18.7583924 L24.4071961,17.4499512 L23.097992,18.7583924 C22.5265504,19.3305969 21.598816,19.3305969 21.0266113,18.7583924 C20.4544066,18.1861877 20.4544066,17.2584533 21.0266113,16.6870117 L23.3711242,14.3424988 C23.9433289,13.7702941 24.8710633,13.7702941 25.4425049,14.3424988 L27.7870178,16.6870117 C28.3592225,17.2584533 28.3592225,18.1861877 27.7870178,18.7583924 C27.5009156,19.0444945 27.1263123,19.1871643 26.7509461,19.1871643 Z" id="Path"></path>
                <path d="M40.1550293,19.1871643 C39.7796631,19.1871643 39.4050598,19.0444945 39.1189574,18.7583924 L37.8105164,17.4499512 L36.5020752,18.7583924 C35.9298707,19.3305969 35.0021363,19.3305969 34.4299316,18.7583924 C33.857727,18.1861877 33.857727,17.2584533 34.4299316,16.6870117 L36.7744445,14.3424988 C37.3466492,13.7702941 38.2743836,13.7702941 38.8458252,14.3424988 L41.1903381,16.6870117 C41.7625428,17.2584533 41.7625428,18.1861877 41.1903381,18.7583924 C40.9042359,19.0444945 40.5296326,19.1871643 40.1550293,19.1871643 L40.1550293,19.1871643 Z" id="Path"></path>
                <path d="M13.3476258,19.1871643 C12.9730225,19.1871643 12.5976562,19.0444945 12.3115539,18.7583924 L11.0031129,17.4499512 L9.69467168,18.7583924 C9.12246699,19.3305969 8.1954957,19.3305969 7.62329102,18.7583924 C7.05108633,18.1861877 7.05108633,17.2584533 7.62329102,16.6870117 L9.96780391,14.3424988 C10.5400086,13.7702941 11.4669801,13.7702941 12.0391846,14.3424988 L14.3836975,16.6870117 C14.9559021,17.2584533 14.9559021,18.1861877 14.3836975,18.7583924 C14.0975953,19.0444945 13.7222289,19.1871643 13.3476258,19.1871643 Z" id="Path"></path>
                <path d="M33.4526063,46.018982 C33.0780029,46.018982 32.7033996,45.8763123 32.4172973,45.59021 L31.1088563,44.2817687 L29.7996521,45.59021 C29.2282105,46.1624145 28.3004762,46.1624145 27.7282715,45.59021 C27.1560668,45.0180055 27.1560668,44.0902711 27.7282715,43.5188293 L30.0727844,41.1743164 C30.6449891,40.6021117 31.5727234,40.6021117 32.144165,41.1743164 L34.4886779,43.5188293 C35.0608826,44.0902711 35.0608826,45.0180055 34.4886779,45.59021 C34.2025758,45.8763123 33.8279725,46.018982 33.4526063,46.018982 Z" id="Path"></path>
                <path d="M20.0492859,46.018982 C19.6746826,46.018982 19.2993164,45.8763123 19.013977,45.59021 L17.704773,44.2817687 L16.3963318,45.59021 C15.8241271,46.1624145 14.8971559,46.1624145 14.3249512,45.59021 C13.7527465,45.0180055 13.7527465,44.0902711 14.3249512,43.5188293 L16.6694641,41.1743164 C17.2416687,40.6021117 18.1686402,40.6021117 18.7408447,41.1743164 L21.0853576,43.5188293 C21.6575623,44.0902711 21.6575623,45.0180055 21.0853576,45.59021 C20.7992555,45.8763123 20.4238891,46.018982 20.0492859,46.018982 Z" id="Path"></path>
            </g>
            <path d="M39.2150879,59.8762512 C39.2150879,57.3524475 36.6447449,55.3054809 33.4754943,55.3054809 C30.3054809,55.3054809 27.7359008,57.3524475 27.7359008,59.8762512 C27.7359008,62.400818 30.3054809,64.4477844 33.4754943,64.4477844 C36.6447449,64.4477844 39.2150879,62.400818 39.2150879,59.8762512 L39.2150879,59.8762512 Z" id="Path" fill="#EDA1AB"></path>
            <path d="M70.3262328,59.8762512 C70.3262328,57.3524475 67.7558898,55.3054809 64.5866395,55.3054809 C61.416626,55.3054809 58.8470459,57.3524475 58.8470459,59.8762512 C58.8470459,62.400818 61.416626,64.4477844 64.5866395,64.4477844 C67.7558898,64.4477844 70.3262328,62.400818 70.3262328,59.8762512 L70.3262328,59.8762512 Z" id="Path" fill="#EDA1AB"></path>
            <path d="M53.6582947,56.364441 C53.6582947,53.5049438 51.5861512,53.2356262 49.0310668,53.2356262 C46.4752197,53.2356262 44.4030762,53.5049437 44.4030762,56.364441 C44.4030762,59.224701 46.4752197,61.5432738 49.0310668,61.5432738 C51.5861512,61.5432738 53.6582947,59.224701 53.6582947,56.364441 Z" id="Path" fill="#4E5660"></path>
            <path d="M61.6767883,67.0394898 L55.0506592,68.20755 L57.7362061,79.1595459 C58.0085754,80.2711486 59.0965271,80.9806824 60.2241516,80.7815551 L61.1160277,80.6243896 C62.2436523,80.4260254 63.0233766,79.386902 62.8990174,78.2493592 L61.6767883,67.0394898 Z" id="Path" fill="#8EAFE2"></path>
            <path d="M61.20224,68.9857482 L56.163025,69.8745727 C55.1841736,70.0469971 54.2030334,69.5854187 53.7124633,68.7210082 L52.7114867,66.9593811 C52.2216797,66.0972596 52.0446777,65.0917053 52.2102355,64.113617 L52.5474549,62.1162414 C52.7130127,61.1366271 53.4774781,60.3668213 54.4563293,60.1943969 L59.4955445,59.3055725 C60.4743957,59.1331482 61.4555359,59.5954895 61.9461059,60.4591369 L62.9463195,62.2207641 C63.4368896,63.0828857 63.6138916,64.0884398 63.4483338,65.0665283 L63.1111145,67.0639039 C62.9447938,68.043518 62.1803283,68.813324 61.20224,68.9857482 L61.20224,68.9857482 Z" id="Path" fill="#4E5660"></path>
            <path d="M67.1813965,74.9084473 C64.4218445,74.9084473 61.1259461,74.3675232 57.2174072,73.2894898 C55.4977418,72.8149414 54.4883729,71.0357666 54.9629211,69.3153381 C55.4374695,67.5956727 57.2151184,66.5855408 58.9363098,67.060852 C61.7874145,67.8474426 68.6561584,69.4686891 70.8618164,67.539215 C71.989441,66.5527344 72.2579957,64.0220643 71.6819764,59.803009 C71.4401246,58.0352783 72.6776123,56.4064025 74.4461059,56.1645508 C76.2115479,55.9242248 77.8427125,57.1609496 78.0838012,58.9286805 C78.4820557,61.8461609 78.5446168,64.1021729 78.2814025,66.027832 C77.9090881,68.7461854 76.8440246,70.8908082 75.1159668,72.4021912 C73.2032775,74.0753174 70.6047059,74.9084473 67.1813965,74.9084473 Z" id="Path" fill="#EFD176"></path>
            <path d="M10.546875,30.9562684 L10.546875,39.1876221 C9.89532461,39.1464234 9.20486445,39.1830445 8.48846445,39.3096924 C4.60891719,39.9932861 1.46484375,43.0137635 1.46484375,46.0556031 C1.46484375,49.0974426 4.60891719,51.0086059 8.48846445,50.3250121 C12.3664855,49.6406555 15.5113221,46.6209412 15.5113221,43.5791016 L15.5113221,30.0811768 L10.546875,30.9562684 Z" id="Path" fill="#8EE2CF"></path>
            <path d="M19.5358277,29.3708801 L10.546875,30.9562684 L10.546875,28.3401488 C10.546875,26.3450623 11.9789123,24.6383668 13.9434814,24.2919922 L21.3066102,22.9934691 C22.1382141,22.8469848 22.9003906,23.4863281 22.9003906,24.3309021 L22.9003906,25.3616332 C22.9003906,27.3376465 21.4820861,29.0275574 19.5358277,29.3708801 Z" id="Path" fill="#8EAFE2"></path>
            <polygon id="Path" fill="#6FCE91" points="10.546875 33.2832336 15.5113221 32.4073791 15.5113221 30.0804139 10.546875 30.9562684"></polygon>
            <path d="M86.1816406,71.949768 L86.1816406,80.1811219 C85.5300902,80.139923 84.8396301,80.177307 84.1232301,80.3031922 C80.2444457,80.9875488 77.0996094,84.0072633 77.0996094,87.0491027 C77.0996094,90.0909424 80.2436828,92.0028688 84.1232301,91.3185119 C88.0012512,90.6349182 91.1460877,87.614441 91.1460877,84.5726014 L91.1460877,71.0746766 L86.1816406,71.949768 Z" id="Path" fill="#8EAFE2"></path>
            <polygon id="Path" fill="#6A96D7" points="86.1816406 74.2767334 91.1460877 73.4016418 91.1460877 71.0739137 86.1816406 71.949768"></polygon>
            <path d="M95.1705934,70.3643799 L86.1816406,71.949768 L86.1816406,69.3336486 C86.1816406,67.3385621 87.6136779,65.6318664 89.5782471,65.285492 L96.9413758,63.9869689 C97.7729797,63.8404846 98.5351562,64.4798279 98.5351562,65.324402 L98.5351562,66.355133 C98.5351562,68.3311463 97.1160889,70.0218201 95.1705934,70.3643799 Z" id="Path" fill="#8EE2CF"></path>
            <path d="M8.74252324,51.7677307 C13.3590699,50.9536742 16.9761658,47.3564148 16.9761658,43.5791016 L16.9761658,31.3102723 L19.7898865,30.8135986 C22.4411012,30.3466797 24.3652344,28.0532836 24.3652344,25.3616332 L24.3652344,24.3309021 C24.3652344,23.4947205 23.9974977,22.7066039 23.3566285,22.1687316 C22.7157594,21.6308594 21.8757629,21.4057922 21.0525512,21.5507508 L13.6894227,22.8492736 C11.0198975,23.3200074 9.08203125,25.629425 9.08203125,28.3401488 L9.08203125,37.7517699 C8.80050664,37.7784729 8.51745605,37.8166199 8.23364258,37.8669738 C3.61633301,38.6810303 0,42.2782898 0,46.0556031 C0,47.7081299 0.704956055,49.2095947 1.98440547,50.2838135 C3.26690664,51.3595582 5.01174922,51.9287109 6.93588262,51.9287109 C7.52410898,51.9287109 8.12911992,51.8753051 8.74252324,51.7677307 Z M12.0117188,28.3401488 C12.0117188,27.053833 12.9310607,25.9574891 14.1975402,25.7347107 L21.4355469,24.4583129 L21.4355469,25.3616332 C21.4355469,26.6288758 20.5299377,27.7084352 19.2817688,27.9281617 L12.0117188,29.2106629 L12.0117188,28.3401488 Z M2.9296875,46.0556031 C2.9296875,43.7362672 5.5915832,41.3078309 8.74252324,40.7524109 C9.32769766,40.6486512 9.9029541,40.6143187 10.4537965,40.6494141 C10.8566285,40.6753539 11.2541199,40.5326844 11.5493773,40.2557373 C11.8438721,39.9787902 12.0117188,39.592743 12.0117188,39.1876221 L12.0117188,32.1853637 L14.0464783,31.8267822 L14.0464783,43.5791016 C14.0464783,45.8976746 11.3845824,48.3268738 8.23364258,48.8822938 C6.49414063,49.1889953 4.86221309,48.8739014 3.86810313,48.0392457 C3.24554453,47.516632 2.9296875,46.849823 2.9296875,46.0556031 Z M63.6268615,55.9440613 C64.4355773,55.9440613 65.0917053,55.2886963 65.0917053,54.4792176 L65.0917053,52.0156859 C65.0917053,51.2069703 64.4355773,50.5508422 63.6268615,50.5508422 C62.8181457,50.5508422 62.1620178,51.2069703 62.1620178,52.0156859 L62.1620178,54.4792176 C62.1620178,55.2886963 62.8181457,55.9440613 63.6268615,55.9440613 Z M34.4345094,50.5508422 C33.6257934,50.5508422 32.9696656,51.2069703 32.9696656,52.0156859 L32.9696656,54.4799805 C32.9696656,55.2886963 33.6257934,55.9448242 34.4345094,55.9448242 C35.2439881,55.9448242 35.8993531,55.2886963 35.8993531,54.4799805 L35.8993531,52.0156859 C35.8993531,51.2069703 35.2439881,50.5508422 34.4345094,50.5508422 Z M98.9913941,63.1622314 C98.350525,62.6243592 97.5105285,62.399292 96.6873168,62.5442504 L89.3241883,63.8427734 C86.6546631,64.313507 84.7167969,66.6229248 84.7167969,69.3336486 L84.7167969,78.7452697 C84.4352723,78.7719727 84.1522217,78.8108826 83.8684082,78.8604736 C79.2518615,79.6745301 75.6347656,83.2717895 75.6347656,87.0491027 C75.6347656,88.7016297 76.3397217,90.2030945 77.6191711,91.2773133 C78.9016723,92.3530578 80.6465148,92.9222107 82.5706482,92.9222107 C83.1588746,92.9222107 83.7638855,92.8688049 84.3772889,92.7612305 C88.9945984,91.947174 92.6109314,88.3499145 92.6109314,84.5726014 L92.6109314,72.3037719 L95.425415,71.8070984 C98.0758668,71.3401795 100,69.0467834 100,66.355133 L100,65.324402 C100,64.4882203 99.6322633,63.7001037 98.9913941,63.1622314 L98.9913941,63.1622314 Z M89.6812439,84.5726014 C89.6812439,86.8919373 87.019348,89.3203734 83.8684082,89.8757934 C82.1289062,90.1824951 80.4969787,89.8674012 79.5021057,89.0327453 C78.8795471,88.5108947 78.5644531,87.8433227 78.5644531,87.0491027 C78.5644531,84.7297668 81.2263488,82.3013305 84.3765258,81.7459105 C84.9624633,81.6421508 85.5384826,81.6078186 86.087799,81.6429139 C86.4906311,81.6688537 86.8881227,81.526184 87.1833801,81.2492371 C87.4786377,80.97229 87.6457215,80.5862426 87.6457215,80.1811219 L87.6457215,73.1788635 L89.6804809,72.820282 L89.6804809,84.5726014 L89.6812439,84.5726014 Z M97.0703125,66.355133 C97.0703125,67.6223754 96.1647033,68.7019348 94.9165344,68.9224242 L87.6464844,70.2041625 L87.6464844,69.3336486 C87.6464844,68.0473328 88.5658264,66.9509887 89.8323059,66.7282105 L97.0703125,65.4518127 L97.0703125,66.355133 Z M63.7321473,80.5389404 C66.2117004,79.4509887 68.3708191,77.9762268 70.1614379,76.1474609 C72.5387574,75.7652283 74.4926453,74.8931885 76.0803223,73.5054016 C78.0822754,71.7544555 79.3106078,69.3054199 79.7325135,66.2269592 C80.014801,64.1654969 79.95224,61.7835998 79.5349121,58.7310791 C79.3037414,57.0365906 78.1906129,55.6755066 76.7219543,55.0476074 C76.6937256,54.1862488 76.6456604,53.3096313 76.574707,52.4276734 C75.920868,44.2871094 73.1788635,37.3580934 68.6454773,32.3905945 C68.3258057,32.0396424 67.9977418,31.7016602 67.6628113,31.3735961 C69.8020936,30.4382324 71.6278076,29.222107 73.1094359,27.7404785 C77.9846191,22.8645324 78.855133,15.460968 78.9405822,11.4814758 C78.9627074,10.4400635 78.5690309,9.46044922 77.8320312,8.72344961 C77.0950316,7.9864502 76.1116027,7.59048457 75.0740051,7.61489863 C71.5003967,7.69119258 65.1657105,8.40301523 60.3797912,12.0780945 C58.9859008,7.28149414 55.8029176,3.35769648 53.7033082,1.16653437 C52.9823303,0.414276172 52.0118713,0 50.9689332,0 C49.9267578,0 48.9555359,0.414276172 48.2353211,1.16653437 C46.1349488,3.35769648 42.9519652,7.28149414 41.558075,12.0780945 C36.7729187,8.40377813 30.4382324,7.69119258 26.864624,7.61489863 C25.8239746,7.59353633 24.8435975,7.9864502 24.1065979,8.72344961 C23.3695984,9.46044922 22.9759217,10.4400635 22.9980469,11.4807129 C23.0087281,11.9911193 23.0316162,12.512207 23.0667113,13.0294801 C23.1208801,13.8366699 23.8189697,14.4485473 24.6269227,14.3928527 C25.4341125,14.3379211 26.0437012,13.6398316 25.9895324,12.8326416 C25.9574891,12.360382 25.9368896,11.8843078 25.9269715,11.4189148 C25.9201051,11.101532 26.0810852,10.8917236 26.1779785,10.7948303 C26.2748719,10.6979371 26.4846801,10.5339051 26.8013,10.5438232 C34.8632812,10.7162477 39.0762328,13.6009217 40.925598,15.3938293 C40.8843994,15.8531189 40.8615113,16.3169861 40.8615113,16.7854309 C40.8615113,19.7387695 41.7076111,22.7760314 43.3731078,25.8369445 C41.0102844,26.5991211 38.8069152,27.7320861 36.7980957,29.2190551 C34.3978883,28.3752441 32.4157715,27.1835328 30.9005738,25.668335 C29.2938232,24.0623475 28.0487061,21.9322205 27.1995545,19.3382264 C26.9477844,18.5691834 26.120758,18.1495666 25.351715,18.4013367 C24.5826721,18.6531066 24.1638184,19.4808961 24.4155883,20.249176 C25.4096984,23.2849121 26.8943787,25.8049012 28.8291932,27.7397156 C30.3108215,29.222107 32.1365355,30.4382324 34.2750549,31.3735961 C33.9408875,31.7016602 33.6128234,32.0388793 33.293152,32.3898316 C28.7597656,37.3580934 26.0177613,44.2871094 25.3639221,52.4269104 C25.2418518,53.9390564 25.1846312,55.3970336 25.1869201,56.8031311 C23.8128662,57.7171326 22.380066,58.2458496 20.9175109,58.3770752 C18.4875488,58.5952758 16.0827637,57.6560975 14.1471863,55.73349 C13.2575988,54.8492432 12.0857238,54.3685914 10.8222961,54.3685914 C9.56878672,54.3731689 8.3908082,54.8652648 7.50656133,55.7548523 C6.62307734,56.6444396 6.13861094,57.8254699 6.14240323,59.0789795 C6.14624023,60.333252 6.63833613,61.5112305 7.52868652,62.3954773 C11.036682,65.8805848 15.5357361,67.8009033 20.1957703,67.8009033 C20.7130432,67.8009033 21.2371826,67.7772521 21.7552186,67.7307129 C23.350525,67.5880432 24.9214172,67.2241211 26.4450074,66.6519164 C27.469635,70.2453613 29.1183473,73.2818604 31.3850402,75.7385254 C32.8712463,77.3490906 34.6130371,78.6895752 36.6004943,79.7584533 C36.0801697,84.123993 35.5262756,91.2147521 36.580658,96.2631227 C37.0330811,98.4275818 38.9648437,100 41.1735535,100 C41.496277,100 41.8197633,99.9656678 42.1371461,99.899292 C43.3654785,99.6421814 44.4198609,98.9234924 45.1065062,97.8736877 C45.793152,96.823883 46.0296631,95.5696105 45.7733154,94.342041 C45.0866699,91.054535 45.4322814,85.7566834 45.7427979,82.5645447 C47.392273,82.7827453 49.1340637,82.8926086 50.9696961,82.8926086 C51.8859863,82.8926086 52.7801514,82.862091 53.6560059,82.8063965 C53.5469055,87.4732971 54.5295715,92.5956727 56.4331055,97.1229553 C57.1678162,98.8708496 58.8668824,100 60.7627869,100 C61.3891602,100 62.0010375,99.8764039 62.5808715,99.6322633 C63.6314393,99.1905213 64.4844055,98.3833312 64.9826051,97.3602295 C65.336609,96.6323852 65.0344848,95.7557678 64.3066406,95.4017639 C63.5795594,95.0469971 62.7029418,95.349884 62.3489379,96.0777283 C62.1612549,96.4622498 61.8408203,96.7651367 61.4456176,96.9314574 C61.2266541,97.0237732 60.9970094,97.0703125 60.7627869,97.0703125 C60.0494385,97.0703125 59.4100953,96.6453553 59.1331482,95.9877014 C57.3341369,91.708374 56.4308166,86.8637086 56.5956115,82.5073242 C57.3455811,82.3997498 58.0749512,82.2685242 58.782959,82.1151734 C59.123993,82.220459 59.4818115,82.2799684 59.8487854,82.2799684 C59.9449158,82.2799684 60.041809,82.2746277 60.1394652,82.2669982 C60.0036621,84.7976684 60.2935791,87.6602172 60.987091,90.4129027 C61.1541748,91.077423 61.7507934,91.520691 62.4061584,91.520691 C62.525177,91.520691 62.6449586,91.5061951 62.7655029,91.4756775 C63.5498047,91.2788391 64.0258789,90.4823303 63.8282775,89.6980285 C63.0828857,86.7401123 62.851715,83.6753846 63.1752014,81.1813355 C63.3857727,80.9898377 63.5719299,80.7731629 63.7321473,80.5389404 Z M21.4935303,64.8132324 C21.0624695,64.8521424 20.6260682,64.8712158 20.1957703,64.8712158 C16.2574768,64.8712158 12.5915527,63.2965088 9.59320078,60.3172303 C9.25827031,59.9845887 9.07287598,59.5420838 9.0713405,59.0705871 C9.06982422,58.5983277 9.2521668,58.1550598 9.5848084,57.8201293 C9.91745,57.485199 10.3599549,57.3005676 10.8322145,57.2990418 L10.8375549,57.2990418 C11.3075256,57.2990418 11.7492676,57.4813844 12.0819092,57.8117371 C14.6415711,60.3546143 17.8726195,61.5913391 21.1784363,61.2960816 C22.5967406,61.1686707 23.9807129,60.7704162 25.3135682,60.1089477 C25.4119873,61.377716 25.5661012,62.5976562 25.7774354,63.7672424 C24.3873596,64.3287658 22.9507445,64.6827697 21.4935303,64.8132324 L21.4935303,64.8132324 Z M64.2379762,77.0118713 L64.1479492,76.1924744 C64.5713807,76.2397766 64.9856566,76.2786865 65.3900146,76.3069152 C65.0184631,76.5548707 64.6331787,76.789093 64.2379762,77.0118713 Z M61.077118,16.7861937 C61.077118,16.317749 61.0534668,15.8546447 61.0130311,15.3961182 C65.1702881,11.3540648 71.6316223,10.6193543 75.1365662,10.5438232 C75.4516602,10.5323791 75.6637574,10.6987 75.7606506,10.7948303 C75.8567811,10.8917236 76.0185242,11.101532 76.0116578,11.4189148 C75.9353637,14.9589539 75.189209,21.5171814 71.0380555,25.668335 C69.5228576,27.1835328 67.540741,28.3752441 65.1405334,29.2190551 C63.1317139,27.7320861 60.9275818,26.5991211 58.5647582,25.8361816 C60.231018,22.7760314 61.077118,19.7387695 61.077118,16.7861937 Z M50.3509521,3.19290156 C50.5706787,2.96401973 50.832367,2.9296875 50.9696961,2.9296875 C51.1062621,2.9296875 51.3679504,2.96401973 51.587677,3.19290156 C57.295227,9.14993281 58.1474305,14.2662049 58.1474305,16.7861938 C58.1474305,19.4480896 57.29599,22.2389221 55.620575,25.0938416 C54.119873,24.8161316 52.5672912,24.6734619 50.9696961,24.6734619 C49.3713379,24.6734619 47.8187561,24.8161316 46.3180543,25.0938416 C44.6426391,22.2389221 43.7911988,19.4473266 43.7911988,16.7854309 C43.7911988,14.2662049 44.6434021,9.14993281 50.3509521,3.19290156 Z M42.6551818,96.2699891 C42.3965453,96.6651916 41.9998168,96.9352723 41.5382385,97.0321656 C41.4176941,97.0573426 41.2948609,97.0695496 41.1743164,97.0695496 C40.3442383,97.0695496 39.6186828,96.4790344 39.4485473,95.6649781 C38.532257,91.2780762 38.9869689,84.8854064 39.4058227,81.0264588 C40.4945373,81.4338684 41.6419982,81.7764281 42.8497314,82.0510863 C42.4797059,85.7261658 42.137909,91.2689209 42.9061891,94.9424744 C43.0023193,95.4040527 42.9130555,95.8755492 42.6551818,96.2699891 Z M50.9689332,79.963684 C43.2067871,79.963684 37.3420715,77.873993 33.5380555,73.7518311 C31.3072205,71.3348389 29.7615051,68.2250977 28.90625,64.4538879 C28.8955687,64.3608094 28.8749695,64.2684937 28.8459777,64.1777039 C28.413391,62.1757508 28.1715393,59.9914551 28.1234742,57.6271057 C28.1272889,57.5660705 28.1257629,57.5057984 28.1211854,57.4447633 C28.0967713,55.9234619 28.150177,54.3296814 28.2836914,52.6618957 C28.8856506,45.1759338 31.3659668,38.848877 35.456848,34.3650818 C36.2342834,33.5128785 37.0613098,32.7392578 37.9333496,32.0442199 C37.9364014,32.0411682 37.940216,32.0381164 37.9432678,32.0358277 C40.3190613,30.1429748 43.0282594,28.8368225 45.9892273,28.1555176 C45.9922791,28.1547547 45.9960938,28.1539918 45.9991455,28.1532287 C47.5883484,27.7885437 49.2485047,27.6031494 50.9689332,27.6031494 C55.898285,27.6031494 60.3408812,29.1252137 63.9930725,32.0350646 C63.9976502,32.0381164 64.0014648,32.0411682 64.0052795,32.0442199 C64.8773193,32.7400207 65.7035828,33.5136414 66.481018,34.3650818 C70.5718994,38.848877 73.0529785,45.1759338 73.6541748,52.6618957 C73.7121582,53.3813477 73.753357,54.0962219 73.7808227,54.8011779 C72.7302551,55.052948 71.8063355,55.6541443 71.1441039,56.5254211 C70.3849793,57.524109 70.0607301,58.7585449 70.2301025,60.0013732 C70.9259033,65.0939941 70.1515197,66.2147521 69.8974609,66.4360047 C69.290924,66.9670105 67.5094605,67.1775818 64.6430969,66.784668 L64.8925781,65.3106689 C65.1138305,64.0037537 64.8750305,62.6495361 64.2204285,61.4974977 L63.219452,59.7358703 C62.4244689,58.3366395 60.8253479,57.5836182 59.2407227,57.863617 L54.7500609,58.6547852 C54.99115,57.9406738 55.1231385,57.169342 55.1231385,56.364441 C55.1231385,54.0100098 53.9497375,52.9205322 52.9655457,52.4215699 C51.9012451,51.8821717 50.6233215,51.7715453 49.0310668,51.7715453 C47.4388123,51.7715453 46.1601258,51.8821717 45.0958252,52.4215699 C44.1116332,52.9205322 42.9382324,54.0100098 42.9382324,56.364441 C42.9382324,60.0280762 45.6718445,63.0081176 49.0310668,63.0081176 C49.708557,63.0081176 50.3601074,62.8845215 50.9696961,62.6609803 L50.7659912,63.8694764 C50.5447387,65.1763916 50.7835389,66.5306092 51.4381408,67.6826477 L52.4383545,69.444275 C52.6824951,69.8738098 53.010559,70.2484131 53.3966064,70.5520629 C53.4919738,71.7170715 54.0222168,72.8042602 54.864502,73.5977172 L56.3140869,79.5089723 C56.3201904,79.5349121 56.3293457,79.5593262 56.3362121,79.5845031 C54.6585082,79.8347473 52.8640746,79.963684 50.9689332,79.963684 L50.9689332,79.963684 Z M62.0040895,64.8223877 L61.7614746,66.2574768 C60.9985352,66.0873414 60.1875305,65.8866883 59.3261719,65.6486512 C57.510376,65.1481629 55.6449891,65.7897949 54.4975281,67.137909 L53.9855957,66.2361145 C53.6628723,65.6684875 53.5453797,65.0016785 53.6544801,64.3577576 L53.9916992,62.360382 C54.0542602,61.9926453 54.3426514,61.7012023 54.7103883,61.6363525 L59.7496033,60.748291 C60.11734,60.6834412 60.4881287,60.8581543 60.6719971,61.1824035 L61.6729736,62.9440309 C61.994934,63.5116578 62.1131896,64.1784668 62.0040895,64.8223877 L62.0040895,64.8223877 Z M52.193451,56.364441 C52.193451,58.4121703 50.7751465,60.0784301 49.0310668,60.0784301 C47.2869873,60.0784301 45.8679199,58.4121703 45.8679199,56.364441 C45.8679199,55.2108766 45.9960937,54.7004699 49.0310668,54.7004699 C52.0652771,54.7004699 52.193451,55.2108766 52.193451,56.364441 Z M60.8619689,79.1816711 L59.9700928,79.3395996 C59.6038818,79.4036865 59.2475891,79.1717529 59.1590881,78.8108826 L58.2435607,75.0755311 C59.2559814,75.3311156 60.2241516,75.5485535 61.151123,75.7278441 L61.4433289,78.4080506 C61.4830018,78.7773133 61.2281799,79.1175842 60.8619689,79.1816711 L60.8619689,79.1816711 Z M62.789917,73.046875 C62.763977,73.0415344 62.7388,73.0377197 62.7128602,73.0331422 C61.1595154,72.7737426 59.4657898,72.3899842 57.6072693,71.8772889 C57.4035645,71.8208312 57.2196961,71.7300414 57.056427,71.6140746 C57.0465088,71.6064453 57.0365906,71.5995789 57.0266723,71.5927125 C56.5155029,71.2127686 56.2370301,70.5757141 56.3301086,69.9256896 C56.3323975,69.9089051 56.3354492,69.8921203 56.336975,69.8753357 C56.3468934,69.8188781 56.3591004,69.7624207 56.3743592,69.7059631 C56.5902711,68.9239502 57.3028564,68.408966 58.07724,68.408966 C58.2321168,68.408966 58.3900451,68.4295654 58.5464477,68.4730529 C63.2186891,69.7624207 69.3153381,70.8381652 71.8261719,68.6416625 C73.3955383,67.2691346 73.7983703,64.4821168 73.1330871,59.6054078 C73.0690002,59.1377258 73.1910705,58.6738586 73.47641,58.2984924 C73.7617492,57.9223633 74.1760254,57.6805115 74.6437072,57.6164246 C74.7848512,57.5973512 74.9237061,57.5973512 75.0595094,57.611084 C75.0961305,57.6164246 75.1327516,57.6217652 75.1693727,57.6240539 C75.9132385,57.7468871 76.525116,58.342743 76.6319275,59.1278076 C77.0118713,61.9094848 77.0744324,64.0396117 76.8295289,65.8302307 C76.5068055,68.1877137 75.6057738,70.0286865 74.1516113,71.3005066 C72.9103088,72.3854064 71.3119508,73.0514527 69.3008422,73.3139039 C69.2794801,73.3161926 69.2581176,73.3184814 69.2375184,73.3215332 C68.5943604,73.4024047 67.9100037,73.4443664 67.1813965,73.4443664 C65.8554078,73.4436035 64.3989563,73.3123779 62.789917,73.046875 L62.789917,73.046875 Z" id="Shape" fill="#000000"></path>
        </g>
    </g>
</svg>