<svg height="512pt" viewBox="0 0 512 512" width="512pt" xmlns="http://www.w3.org/2000/svg"><path d="m210.808594 504.5c-7.664063 0-14.542969-5.359375-16.171875-13.160156-7.546875-36.113282 1.792969-96.664063 3.824219-106.304688 1.882812-8.9375 10.660156-14.65625 19.597656-12.773437 8.9375 1.882812 14.660156 10.660156 12.773437 19.597656-2.371093 11.242187-9.601562 65.015625-3.8125 92.714844 1.867188 8.941406-3.867187 17.703125-12.808593 19.574219-1.140626.234374-2.28125.351562-3.402344.351562zm0 0" fill="#efd176"/><path d="m311.105469 504.5c-6.460938 0-12.59375-3.808594-15.257813-10.136719-17.265625-41.066406-18.316406-90.472656-2.445312-114.925781 4.976562-7.660156 15.21875-9.839844 22.882812-4.867188 7.660156 4.976563 9.84375 15.21875 4.867188 22.882813-7.480469 11.523437-9.9375 48.101563 5.195312 84.089844 3.539063 8.421875-.417968 18.117187-8.839844 21.65625-2.09375.882812-4.265624 1.300781-6.402343 1.300781zm0 0" fill="#efd176"/><path d="m103.402344 339.640625c-21.945313 0-42.867188-8.898437-59.574219-25.496094-6.480469-6.4375-6.511719-16.910156-.074219-23.390625 6.441406-6.480468 16.914063-6.515625 23.394532-.074218 11.503906 11.429687 25.929687 17 40.617187 15.683593 17.414063-1.558593 34.101563-12.578125 46.996094-31.023437 5.230469-7.488282 15.542969-9.316406 23.03125-4.085938 7.488281 5.234375 9.316406 15.546875 4.085937 23.035156-18.582031 26.589844-43.855468 42.578126-71.160156 45.027344-2.449219.214844-4.890625.324219-7.316406.324219zm0 0" fill="#efd176"/><path d="m215.488281 74.148438c23.273438 23.273437 27.257813 59.503906 27.65625 78.101562.144531 6.757812-5.378906 12.28125-12.136719 12.136719-18.59375-.398438-54.828124-4.386719-78.101562-27.660157-23.273438-23.273437-27.261719-59.503906-27.660156-78.101562-.144532-6.757812 5.382812-12.28125 12.140625-12.136719 18.59375.398438 54.828125 4.382813 78.101562 27.660157zm0 0" fill="#8ee2cf"/><path d="m198.152344 126.894531c-1.917969 0-3.839844-.734375-5.300782-2.199219l-27.914062-27.910156c-2.929688-2.929687-2.929688-7.679687 0-10.605468 2.929688-2.929688 7.675781-2.929688 10.605469 0l27.914062 27.910156c2.929688 2.929687 2.929688 7.679687 0 10.605468-1.464843 1.464844-3.382812 2.199219-5.304687 2.199219zm0 0" fill="#6fce91"/><path d="m306.4375 74.148438c-23.273438 23.273437-27.261719 59.503906-27.660156 78.101562-.140625 6.757812 5.382812 12.28125 12.136718 12.136719 18.597657-.398438 54.828126-4.386719 78.105469-27.660157 23.269531-23.273437 27.257813-59.503906 27.65625-78.101562.144531-6.757812-5.378906-12.28125-12.136719-12.136719-18.59375.398438-54.828124 4.382813-78.101562 27.660157zm0 0" fill="#8ee2cf"/><path d="m323.769531 126.894531c-1.917969 0-3.835937-.734375-5.300781-2.199219-2.929688-2.929687-2.929688-7.675781 0-10.605468l27.910156-27.910156c2.929688-2.929688 7.679688-2.929688 10.605469 0 2.929687 2.925781 2.929687 7.675781 0 10.605468l-27.910156 27.910156c-1.464844 1.464844-3.382813 2.199219-5.304688 2.199219zm0 0" fill="#6fce91"/><path d="m305.214844 85.945312c0 32.910157-22.804688 61.351563-35.671875 74.78125-4.675781 4.882813-12.488281 4.882813-17.164063 0-12.867187-13.429687-35.667968-41.867187-35.667968-74.78125 0-32.914062 22.800781-61.355468 35.667968-74.785156 4.675782-4.878906 12.488282-4.878906 17.164063 0 12.871093 13.429688 35.671875 41.871094 35.671875 74.785156zm0 0" fill="#8ee2cf"/><path d="m260.960938 113.179688c-4.140626 0-7.5-3.355469-7.5-7.5v-39.472657c0-4.140625 3.359374-7.5 7.5-7.5 4.144531 0 7.5 3.359375 7.5 7.5v39.472657c0 4.144531-3.355469 7.5-7.5 7.5zm0 0" fill="#6fce91"/><path d="m260.960938 133.828125c68.277343 0 117.082031 53.773437 123.625 135.203125 6.804687 84.703125-25.058594 147.882812-123.625 147.882812-98.566407 0-130.429688-63.179687-123.621094-147.882812 6.539062-81.429688 55.347656-135.203125 123.621094-135.203125zm0 0" fill="#f7ef87"/><g fill="#efd176"><path d="m220.148438 140.925781c-46.359376 17.113281-77.664063 64.046875-82.808594 128.105469-6.789063 84.464844 24.886718 147.527344 122.808594 147.875-118.855469-72.71875-86.984376-203.921875-40-275.980469zm0 0"/><path d="m272.964844 238.238281c-1.917969 0-3.835938-.730469-5.300782-2.195312l-6.699218-6.699219-6.703125 6.699219c-2.925781 2.929687-7.675781 2.929687-10.605469 0-2.929688-2.929688-2.929688-7.679688 0-10.605469l12.003906-12.003906c2.929688-2.929688 7.679688-2.929688 10.605469 0l12.003906 12.003906c2.929688 2.925781 2.929688 7.675781 0 10.605469-1.464843 1.464843-3.382812 2.195312-5.304687 2.195312zm0 0"/><path d="m341.59375 238.238281c-1.921875 0-3.839844-.730469-5.304688-2.195312l-6.699218-6.699219-6.699219 6.699219c-2.929687 2.929687-7.679687 2.929687-10.609375 0-2.929688-2.929688-2.929688-7.679688 0-10.605469l12.003906-12.003906c2.929688-2.929688 7.679688-2.929688 10.605469 0l12.003906 12.003906c2.929688 2.925781 2.929688 7.675781 0 10.605469-1.464843 1.464843-3.382812 2.195312-5.300781 2.195312zm0 0"/><path d="m204.339844 238.238281c-1.917969 0-3.839844-.730469-5.304688-2.195312l-6.699218-6.699219-6.699219 6.699219c-2.929688 2.929687-7.675781 2.929687-10.605469 0-2.929688-2.929688-2.929688-7.679688 0-10.605469l12.003906-12.003906c2.929688-2.929688 7.675782-2.929688 10.605469 0l12.003906 12.003906c2.929688 2.925781 2.929688 7.675781 0 10.605469-1.464843 1.464843-3.386719 2.195312-5.304687 2.195312zm0 0"/><path d="m307.277344 375.617188c-1.917969 0-3.835938-.730469-5.300782-2.195313l-6.699218-6.699219-6.703125 6.699219c-2.925781 2.929687-7.675781 2.929687-10.605469 0s-2.929688-7.679687 0-10.605469l12.003906-12.003906c2.929688-2.929688 7.679688-2.929688 10.605469 0l12.003906 12.003906c2.929688 2.925782 2.929688 7.675782 0 10.605469-1.464843 1.464844-3.382812 2.195313-5.304687 2.195313zm0 0"/><path d="m238.652344 375.617188c-1.917969 0-3.839844-.730469-5.300782-2.195313l-6.703124-6.699219-6.699219 6.699219c-2.929688 2.929687-7.675781 2.929687-10.605469 0s-2.929688-7.679687 0-10.605469l12.003906-12.003906c2.929688-2.929688 7.675782-2.929688 10.605469 0l12.003906 12.003906c2.929688 2.925782 2.929688 7.675782 0 10.605469-1.464843 1.464844-3.386719 2.195313-5.304687 2.195313zm0 0"/></g><path d="m200.78125 306.566406c0-12.921875-13.160156-23.402344-29.386719-23.402344-16.230469 0-29.386719 10.480469-29.386719 23.402344 0 12.925782 13.15625 23.40625 29.386719 23.40625 16.226563 0 29.386719-10.480468 29.386719-23.40625zm0 0" fill="#eda1ab"/><path d="m360.070312 306.566406c0-12.921875-13.160156-23.402344-29.386718-23.402344-16.230469 0-29.386719 10.480469-29.386719 23.402344 0 12.925782 13.15625 23.40625 29.386719 23.40625 16.226562 0 29.386718-10.480468 29.386718-23.40625zm0 0" fill="#eda1ab"/><path d="m274.730469 288.585938c0-14.640626-10.609375-16.019532-23.691407-16.019532-13.085937 0-23.695312 1.378906-23.695312 16.019532 0 14.644531 10.609375 26.515624 23.695312 26.515624 13.082032 0 23.691407-11.871093 23.691407-26.515624zm0 0" fill="#4e5660"/><path d="m315.785156 343.242188-33.925781 5.980468 13.75 56.074219c1.394531 5.691406 6.964844 9.324219 12.738281 8.304687l4.566406-.804687c5.773438-1.015625 9.765626-6.335937 9.128907-12.160156zm0 0" fill="#8eafe2"/><path d="m313.355469 353.207031-25.800781 4.550781c-5.011719.882813-10.035157-1.480468-12.546876-5.90625l-5.125-9.019531c-2.507812-4.414062-3.414062-9.5625-2.566406-14.570312l1.726563-10.226563c.847656-5.015625 4.761719-8.957031 9.773437-9.839844l25.800782-4.550781c5.011718-.882812 10.035156 1.484375 12.546874 5.90625l5.121094 9.019531c2.511719 4.414063 3.417969 9.5625 2.570313 14.570313l-1.726563 10.226563c-.851562 5.015624-4.765625 8.957031-9.773437 9.839843zm0 0" fill="#4e5660"/><path d="m343.96875 383.53125c-14.128906 0-31.003906-2.769531-51.015625-8.289062-8.804687-2.429688-13.972656-11.539063-11.542969-20.347657 2.429688-8.804687 11.53125-13.976562 20.34375-11.542969 14.597656 4.027344 49.765625 12.328126 61.058594 2.449219 5.773438-5.050781 7.148438-18.007812 4.199219-39.609375-1.238281-9.050781 5.097656-17.390625 14.152343-18.628906 9.039063-1.230469 17.390626 5.101562 18.625 14.152344 2.039063 14.9375 2.359376 26.488281 1.011719 36.347656-1.90625 13.917969-7.359375 24.898438-16.207031 32.636719-9.792969 8.566406-23.097656 12.832031-40.625 12.832031zm0 0" fill="#efd176"/><path d="m54 158.496094v42.144531c-3.335938-.210937-6.871094-.023437-10.539062.625-19.863282 3.5-35.960938 18.964844-35.960938 34.539063 0 15.574218 16.097656 25.359374 35.960938 21.859374 19.855468-3.503906 35.957031-18.964843 35.957031-34.539062v-69.109375zm0 0" fill="#8ee2cf"/><path d="m100.023438 150.378906-46.023438 8.117188v-13.394532c0-10.214843 7.332031-18.953124 17.390625-20.726562l37.699219-6.648438c4.257812-.75 8.160156 2.523438 8.160156 6.847657v5.277343c0 10.117188-7.261719 18.769532-17.226562 20.527344zm0 0" fill="#8eafe2"/><path d="m54 170.410156 25.417969-4.484375v-11.914062l-25.417969 4.484375zm0 0" fill="#6fce91"/><path d="m441.25 368.382812v42.144532c-3.335938-.210938-6.871094-.019532-10.539062.625-19.859376 3.503906-35.960938 18.964844-35.960938 34.539062 0 15.574219 16.097656 25.363282 35.960938 21.859375 19.855468-3.5 35.957031-18.964843 35.957031-34.539062v-69.109375zm0 0" fill="#8eafe2"/><path d="m441.25 380.296875 25.417969-4.480469v-11.917968l-25.417969 4.484374zm0 0" fill="#6a96d7"/><path d="m487.273438 360.265625-46.023438 8.117187v-13.394531c0-10.214843 7.332031-18.953125 17.390625-20.726562l37.699219-6.648438c4.257812-.75 8.160156 2.523438 8.160156 6.847657v5.277343c0 10.117188-7.265625 18.773438-17.226562 20.527344zm0 0" fill="#8ee2cf"/><path d="m44.761719 265.050781c23.636719-4.167969 42.15625-22.585937 42.15625-41.925781v-62.816406l14.40625-2.542969c13.574219-2.390625 23.425781-14.132813 23.425781-27.914063v-5.277343c0-4.28125-1.882812-8.316407-5.164062-11.070313s-7.582032-3.90625-11.796876-3.164062l-37.699218 6.648437c-13.667969 2.410157-23.589844 14.234375-23.589844 28.113281v48.1875c-1.441406.136719-2.890625.332032-4.34375.589844-23.640625 4.167969-42.15625 22.585938-42.15625 41.925782 0 8.460937 3.609375 16.148437 10.160156 21.648437 6.566406 5.507813 15.5 8.421875 25.351563 8.421875 3.011719 0 6.109375-.273438 9.25-.824219zm16.738281-119.949219c0-6.585937 4.707031-12.199218 11.191406-13.339843l37.058594-6.535157v4.625c0 6.488282-4.636719 12.015626-11.027344 13.140626l-37.222656 6.566406zm-46.5 90.703126c0-11.875 13.628906-24.308594 29.761719-27.152344 2.996093-.53125 5.941406-.707032 8.761719-.527344 2.0625.132812 4.097656-.597656 5.609374-2.015625 1.507813-1.417969 2.367188-3.394531 2.367188-5.46875v-35.851563l10.417969-1.835937v60.171875c0 11.871094-13.628907 24.308594-29.761719 27.152344-8.90625 1.570312-17.261719-.042969-22.351562-4.316406-3.1875-2.675782-4.804688-6.089844-4.804688-10.15625zm310.769531 50.628906c4.140625 0 7.5-3.355469 7.5-7.5v-12.613282c0-4.140624-3.359375-7.5-7.5-7.5s-7.5 3.359376-7.5 7.5v12.613282c0 4.144531 3.359375 7.5 7.5 7.5zm-149.464843-27.613282c-4.140626 0-7.5 3.359376-7.5 7.5v12.617188c0 4.140625 3.359374 7.5 7.5 7.5 4.144531 0 7.5-3.359375 7.5-7.5v-12.617188c0-4.140624-3.355469-7.5-7.5-7.5zm330.53125 64.570313c-3.28125-2.753906-7.582032-3.90625-11.796876-3.164063l-37.699218 6.648438c-13.667969 2.410156-23.589844 14.234375-23.589844 28.113281v48.1875c-1.441406.136719-2.890625.335938-4.34375.589844-23.636719 4.167969-42.15625 22.585937-42.15625 41.925781 0 8.460938 3.609375 16.148438 10.160156 21.648438 6.566406 5.507812 15.5 8.421875 25.351563 8.421875 3.011719 0 6.109375-.273438 9.25-.824219 23.640625-4.167969 42.15625-22.585938 42.15625-41.925781v-62.816407l14.410156-2.542968c13.570313-2.390625 23.421875-14.132813 23.421875-27.914063v-5.277343c0-4.28125-1.882812-8.316407-5.164062-11.070313zm-47.667969 109.621094c0 11.875-13.628907 24.308593-29.761719 27.152343-8.90625 1.570313-17.261719-.042968-22.355469-4.316406-3.1875-2.671875-4.800781-6.089844-4.800781-10.15625 0-11.875 13.628906-24.308594 29.757812-27.152344 3-.53125 5.949219-.707031 8.761719-.527343 2.0625.132812 4.097657-.597657 5.609375-2.015625 1.511719-1.417969 2.367188-3.394532 2.367188-5.46875v-35.851563l10.417968-1.835937v60.171875zm37.832031-93.273438c0 6.488281-4.636719 12.015625-11.027344 13.144531l-37.222656 6.5625v-4.457031c0-6.585937 4.707031-12.199219 11.191406-13.339843l37.058594-6.535157zm-170.691406 72.621094c12.695312-5.570313 23.75-13.121094 32.917968-22.484375 12.171876-1.957031 22.175782-6.421875 30.304688-13.527344 10.25-8.964844 16.539062-21.503906 18.699219-37.265625 1.445312-10.554687 1.125-22.75-1.011719-38.378906-1.183594-8.675781-6.882812-15.644531-14.402344-18.859375-.144531-4.410156-.390625-8.898438-.753906-13.414062-3.347656-41.679688-17.386719-77.15625-40.597656-102.589844-1.636719-1.796875-3.316406-3.527344-5.03125-5.207032 10.953125-4.789062 20.300781-11.015624 27.886718-18.601562 24.960938-24.964844 29.417969-62.871094 29.855469-83.246094.113281-5.332031-1.902343-10.347656-5.675781-14.121094-3.773438-3.773437-8.808594-5.800781-14.121094-5.675781-18.296875.390625-50.730468 4.035157-75.234375 22.851563-7.136719-24.558594-23.433593-44.648438-34.183593-55.867188-3.691407-3.851562-8.660157-5.972656-14-5.972656-5.335938 0-10.308594 2.121094-13.996094 5.972656-10.753906 11.21875-27.050782 31.308594-34.1875 55.867188-24.5-18.8125-56.933594-22.460938-75.230469-22.851563-5.328125-.109375-10.347656 1.902344-14.121094 5.675781-3.773437 3.773438-5.789062 8.789063-5.675781 14.117188.054688 2.613281.171875 5.28125.351562 7.929688.277344 4.132812 3.851563 7.265624 7.988282 6.980468 4.132812-.28125 7.253906-3.855468 6.976562-7.988281-.164062-2.417969-.269531-4.855469-.320312-7.238281-.035156-1.625.789062-2.699219 1.285156-3.195313.496094-.496093 1.570312-1.335937 3.191406-1.285156 41.277344.882813 62.847656 15.652344 72.316406 24.832031-.210937 2.351563-.328124 4.726563-.328124 7.125 0 15.121094 4.332031 30.671875 12.859374 46.34375-12.097656 3.902344-23.378906 9.703125-33.664062 17.316406-12.289062-4.320312-22.4375-10.421874-30.195312-18.179687-8.226563-8.222656-14.601563-19.128906-18.949219-32.410156-1.289063-3.9375-5.523438-6.085938-9.460938-4.796875-3.9375 1.289062-6.082031 5.527344-4.792969 9.460937 5.089844 15.542969 12.691407 28.445313 22.597657 38.351563 7.585937 7.589844 16.933593 13.816406 27.882812 18.605468-1.710937 1.679688-3.390625 3.40625-5.027343 5.203126-23.210938 25.4375-37.25 60.914062-40.597657 102.589843-.625 7.742188-.917969 15.207031-.90625 22.40625-7.035156 4.679688-14.371093 7.386719-21.859375 8.058594-12.441406 1.117187-24.753906-3.691406-34.664062-13.535156-4.554688-4.527344-10.554688-6.988281-17.023438-6.988281-6.417968.023437-12.449218 2.542968-16.976562 7.097656-4.523438 4.554687-7.003906 10.601562-6.984375 17.019531.019531 6.421875 2.539062 12.453125 7.097656 16.980469 17.960937 17.84375 40.996094 27.675781 64.855469 27.675781 2.648437 0 5.332031-.121094 7.984375-.359375 8.167969-.730469 16.210937-2.59375 24.011719-5.523438 5.246093 18.398438 13.6875 33.945313 25.292968 46.523438 7.609375 8.246094 16.527344 15.109375 26.703125 20.582031-2.664062 22.351563-5.5 58.65625-.101562 84.503907 2.316406 11.082031 12.207031 19.128906 23.515625 19.128906 1.652344 0 3.308594-.171875 4.933594-.511719 6.289062-1.316406 11.6875-4.996094 15.203124-10.371094 3.515626-5.375 4.726563-11.796875 3.414063-18.082031-3.515625-16.832031-1.746094-43.957031-.15625-60.300781 8.445313 1.117187 17.363281 1.679687 26.761719 1.679687 4.691406 0 9.269531-.15625 13.753906-.441406-.558594 23.894531 4.472656 50.121094 14.21875 73.300781 3.761719 8.949219 12.460938 14.730469 22.167969 14.730469 3.207031 0 6.339843-.632812 9.308593-1.882812 5.378907-2.261719 9.746094-6.394532 12.296876-11.632813 1.8125-3.726563.265624-8.214844-3.460938-10.027344-3.722656-1.816406-8.210938-.265625-10.023438 3.460938-.960937 1.96875-2.601562 3.519531-4.625 4.371093-1.121093.472657-2.296874.710938-3.496093.710938-3.652344 0-6.925781-2.175781-8.34375-5.542969-9.210938-21.910156-13.835938-46.714843-12.992188-69.019531 3.839844-.550781 7.574219-1.222656 11.199219-2.007812 1.746094.539062 3.578125.84375 5.457031.84375.492188 0 .988281-.027344 1.488281-.066407-.695312 12.957031.789063 27.613281 4.339844 41.707031.855469 3.402344 3.910156 5.671876 7.265625 5.671876.609375 0 1.222657-.074219 1.839844-.230469 4.015625-1.007813 6.453125-5.085938 5.441406-9.101563-3.816406-15.144531-5-30.835937-3.34375-43.605468 1.078125-.980469 2.03125-2.089844 2.851563-3.289063zm-216.261719-80.515625c-2.207031.199219-4.441406.296875-6.644531.296875-20.164063 0-38.933594-8.0625-54.285156-23.316406-1.714844-1.703125-2.664063-3.96875-2.671876-6.382813-.007812-2.417968.925782-4.6875 2.628907-6.402344 1.703125-1.714843 3.96875-2.660156 6.386719-2.667968h.027343c2.40625 0 4.667969.933594 6.371094 2.625 13.105469 13.019531 29.648437 19.351562 46.574219 17.839844 7.261718-.652344 14.347656-2.691407 21.171875-6.078126.503906 6.496094 1.292969 12.742188 2.375 18.730469-7.117188 2.875-14.472657 4.6875-21.933594 5.355469zm218.851563 62.457031-.460938-4.195312c2.167969.242187 4.289062.441406 6.359375.585937-1.902344 1.269532-3.875 2.46875-5.898437 3.609375zm-16.183594-308.355469c0-2.398437-.121094-4.769531-.328125-7.117187 21.285156-20.695313 54.367187-24.457031 72.3125-24.84375 1.613281-.058594 2.699219.792969 3.195312 1.285156.492188.496094 1.320313 1.570313 1.285157 3.195313-.390626 18.125-4.210938 51.703125-25.464844 72.957031-7.757813 7.757813-17.90625 13.859375-30.195313 18.179687-10.285156-7.613281-21.570312-13.414062-33.667969-17.320312 8.53125-15.667969 12.863282-31.21875 12.863282-46.335938zm-54.917969-69.597656c1.125-1.171875 2.464844-1.347656 3.167969-1.347656.699218 0 2.039062.175781 3.164062 1.347656 29.222656 30.5 33.585938 56.695313 33.585938 69.597656 0 13.628907-4.359375 27.917969-12.9375 42.535157-7.683594-1.421875-15.632813-2.152344-23.8125-2.152344-8.183594 0-16.132813.730469-23.816406 2.152344-8.578126-14.617188-12.9375-28.910157-12.9375-42.539063 0-12.898437 4.363281-39.09375 33.585937-69.59375zm-39.402344 476.554688c-1.324219 2.023437-3.355469 3.40625-5.71875 3.902344-.617187.128906-1.246093.191406-1.863281.191406-4.25 0-7.964844-3.023438-8.835938-7.191406-4.691406-22.460938-2.363281-55.191407-.21875-74.949219 5.574219 2.085937 11.449219 3.839843 17.632813 5.246093-1.894531 18.816407-3.644531 47.195313.289063 66.003907.492187 2.363281.035156 4.777343-1.285157 6.796875zm42.566407-83.488282c-39.742188 0-69.769532-10.699218-89.246094-31.804687-11.421875-12.375-19.335938-28.296875-23.714844-47.605469-.054688-.476562-.160156-.949218-.308594-1.414062-2.214844-10.25-3.453125-21.433594-3.699218-33.539063.019531-.3125.011718-.621093-.011719-.933593-.125-7.789063.148437-15.949219.832031-24.488282 3.082031-38.328125 15.78125-70.722656 36.726562-93.679687 3.980469-4.363281 8.214844-8.324219 12.679688-11.882813.015625-.015625.035156-.03125.050781-.042968 12.164063-9.691407 26.035157-16.378907 41.195313-19.867188.015625-.003906.035156-.007812.050781-.011719 8.136719-1.867187 16.636719-2.816406 25.445313-2.816406 25.238281 0 47.984374 7.792969 66.683593 22.691406.023438.015625.042969.03125.0625.046875 4.464844 3.5625 8.695313 7.523438 12.675781 11.882813 20.945313 22.957031 33.648438 55.351562 36.726563 93.679687.296875 3.683594.507813 7.34375.648437 10.953125-5.378906 1.289063-10.109374 4.367188-13.5 8.828125-3.886718 5.113282-5.546874 11.433594-4.679687 17.796875 3.5625 26.074219-.402344 31.8125-1.703125 32.945313-3.105469 2.71875-12.226562 3.796875-26.902344 1.785156l1.277344-7.546875c1.132812-6.691406-.089844-13.625-3.441406-19.523437l-5.125-9.019532c-4.070313-7.164062-12.257813-11.019531-20.371094-9.585937l-22.992188 4.050781c1.234376-3.65625 1.910157-7.605469 1.910157-11.726562 0-12.054688-6.007813-17.632813-11.046875-20.1875-5.449219-2.761719-11.992188-3.328126-20.144532-3.328126-8.152343 0-14.699218.566407-20.148437 3.328126-5.039063 2.554687-11.046875 8.132812-11.046875 20.1875 0 18.757812 13.996094 34.015624 31.195312 34.015624 3.46875 0 6.804688-.632812 9.925782-1.777343l-1.042969 6.1875c-1.132813 6.691406.089844 13.625 3.441406 19.523437l5.121094 9.019532c1.25 2.199218 2.929687 4.117187 4.90625 5.671874.488281 5.964844 3.203125 11.53125 7.515625 15.59375l7.421875 30.265626c.03125.132812.078125.257812.113281.386718-8.589844 1.28125-17.777344 1.941406-27.480468 1.941406zm56.5-77.523437-1.242188 7.347656c-3.90625-.871093-8.058594-1.898437-12.46875-3.117187-9.296875-2.5625-18.847656.722656-24.722656 7.625l-2.621094-4.617188c-1.652344-2.90625-2.253906-6.320312-1.695312-9.617187l1.726562-10.226563c.320312-1.882812 1.796875-3.375 3.679688-3.707031l25.800781-4.546875c1.882812-.332031 3.78125.5625 4.722656 2.222656l5.125 9.019532c1.648437 2.90625 2.253906 6.320312 1.695313 9.617187zm-50.230469-43.304687c0 10.484374-7.261719 19.015624-16.191407 19.015624-8.929687 0-16.195312-8.53125-16.195312-19.015624 0-5.90625.65625-8.519532 16.195312-8.519532 15.535157 0 16.191407 2.613282 16.191407 8.519532zm44.382812 116.824218-4.566406.808594c-1.875.328125-3.699219-.859375-4.152344-2.707031l-4.6875-19.125c5.183594 1.308593 10.140625 2.421875 14.886719 3.339843l1.496094 13.722657c.203125 1.890625-1.101563 3.632812-2.976563 3.960937zm9.871094-31.410156c-.132813-.027344-.261719-.046875-.394531-.070312-7.953125-1.328126-16.625-3.292969-26.140625-5.917969-1.042969-.289063-1.984375-.753907-2.820313-1.347657-.050781-.039062-.101562-.074218-.152344-.109374-2.617187-1.945313-4.042968-5.207032-3.566406-8.535157.011719-.085937.027344-.171875.035156-.257812.050782-.289063.113282-.578125.191407-.867188 1.105469-4.003906 4.753906-6.640625 8.71875-6.640625.792969 0 1.601562.105469 2.402343.328125 23.921876 6.601563 55.136719 12.109375 67.992188.863281 8.035156-7.027343 10.097656-21.296874 6.691406-46.265624-.328125-2.394532.296875-4.769532 1.757813-6.691407 1.460937-1.925781 3.582031-3.164062 5.976562-3.492187.722657-.097656 1.433594-.097656 2.128907-.027344.1875.027344.375.054688.5625.066406 3.808593.628906 6.941406 3.679688 7.488281 7.699219 1.945312 14.242187 2.265625 25.148437 1.011719 34.316406-1.652344 12.070313-6.265626 21.496094-13.710938 28.007813-6.355469 5.554687-14.539062 8.964844-24.835938 10.308594-.109374.011718-.21875.023437-.324218.039062-3.292969.414062-6.796875.628906-10.527344.628906-6.789062-.003906-14.246094-.675781-22.484375-2.035156zm0 0"/></svg>