<svg height="511pt" viewBox="-27 0 511 511.99977" width="511pt" xmlns="http://www.w3.org/2000/svg"><path d="m135.820312 483.371094c-8.558593 0-15.628906-6.800782-15.898437-15.417969-1.089844-34.640625 23-84.648437 49.570313-102.898437 7.246093-4.976563 17.152343-3.140626 22.132812 4.105468 4.976562 7.246094 3.136719 17.15625-4.109375 22.132813-16.308594 11.199219-36.589844 49.902343-35.777344 75.660156.277344 8.785156-6.621093 16.132813-15.40625 16.40625-.171875.007813-.34375.011719-.511719.011719zm0 0" fill="#efd176"/><path d="m261.839844 504.5c-1.96875 0-3.96875-.367188-5.90625-1.144531-8.160156-3.261719-12.128906-12.523438-8.863282-20.6875 9.238282-23.101563 2.898438-70.359375-2.570312-82.460938-3.621094-8.011719-.0625-17.4375 7.945312-21.058593 8.011719-3.621094 17.4375-.0625 21.058594 7.945312 8.394532 18.570312 16.140625 74.84375 3.117188 107.398438-2.488282 6.222656-8.464844 10.007812-14.78125 10.007812zm0 0" fill="#efd176"/><path d="m388.613281 392.0625c-8.382812 0-15.410156-1.644531-20.597656-3.449219-26.828125-9.328125-46.410156-36.164062-51.109375-70.03125-1.207031-8.707031 4.871094-16.742187 13.578125-17.949219 8.710937-1.21875 16.742187 4.871094 17.949219 13.578126 3.003906 21.632812 14.792968 39.039062 30.039062 44.339843 9.664063 3.355469 25.382813 3.339844 45.402344-15.824219 6.351562-6.078124 16.425781-5.859374 22.503906.488282 6.078125 6.351562 5.859375 16.425781-.492187 22.503906-21.628907 20.707031-41.765625 26.34375-57.273438 26.34375zm0 0" fill="#efd176"/><path d="m135.636719 301.238281c-1.734375 0-3.5-.289062-5.230469-.890625-52.207031-18.171875-76.378906-47.90625-100.492188-93.125-4.132812-7.757812-1.199218-17.398437 6.558594-21.53125 7.757813-4.132812 17.394532-1.203125 21.53125 6.554688 24.382813 45.726562 44.519532 64.691406 82.863282 78.039062 8.300781 2.890625 12.6875 11.960938 9.800781 20.261719-2.289063 6.570313-8.445313 10.691406-15.03125 10.691406zm0 0" fill="#efd176"/><path d="m226.660156 80.5c18.164063 25.941406 15.890625 60.9375 13.160156 78.625-.992187 6.425781-7.152343 10.738281-13.53125 9.472656-17.550781-3.484375-51.21875-13.316406-69.382812-39.257812s-15.890625-60.941406-13.160156-78.625c.992187-6.429688 7.152344-10.738282 13.53125-9.472656 17.550781 3.480468 51.21875 13.316406 69.382812 39.257812zm0 0" fill="#8ee2cf"/><path d="m202.679688 127.976562c-2.363282 0-4.691407-1.113281-6.148438-3.199218l-21.785156-31.109375c-2.375-3.394531-1.550782-8.070313 1.84375-10.445313 3.394531-2.378906 8.066406-1.554687 10.445312 1.839844l21.78125 31.113281c2.378906 3.394531 1.550782 8.070313-1.839844 10.445313-1.308593.914062-2.808593 1.355468-4.296874 1.355468zm0 0" fill="#6fce91"/><path d="m312.839844 95.695312c-25.941406 18.164063-35.773438 51.832032-39.257813 69.382813-1.265625 6.378906 3.046875 12.539063 9.472657 13.53125 17.6875 2.726563 52.6875 5.003906 78.625-13.160156 25.941406-18.164063 35.777343-51.832031 39.257812-69.382813 1.265625-6.378906-3.042969-12.539062-9.472656-13.53125-17.683594-2.730468-52.683594-5.003906-78.625 13.160156zm0 0" fill="#8ee2cf"/><path d="m321.710938 148.964844c-2.363282 0-4.691407-1.113282-6.148438-3.199219-2.375-3.394531-1.550781-8.070313 1.839844-10.445313l31.113281-21.785156c3.390625-2.375 8.066406-1.550781 10.445313 1.84375 2.375 3.394532 1.550781 8.070313-1.84375 10.445313l-31.109376 21.785156c-1.308593.914063-2.808593 1.355469-4.296874 1.355469zm0 0" fill="#6fce91"/><path d="m309.707031 106.667969c-5.496093 31.1875-31.855469 54.328125-46.292969 64.902343-5.246093 3.84375-12.648437 2.539063-16.261718-2.867187-9.949219-14.875-26.804688-45.632813-21.304688-76.820313s31.855469-54.328124 46.292969-64.902343c5.246094-3.84375 12.648437-2.539063 16.261719 2.867187 9.953125 14.875 26.804687 45.632813 21.304687 76.820313zm0 0" fill="#8ee2cf"/><path d="m264.492188 125.476562c-.433594 0-.871094-.035156-1.3125-.113281-4.082032-.71875-6.804688-4.609375-6.085938-8.6875l6.597656-37.402343c.71875-4.078126 4.613282-6.808594 8.6875-6.085938 4.078125.71875 6.804688 4.609375 6.082032 8.6875l-6.59375 37.40625c-.640626 3.636719-3.804688 6.195312-7.375 6.195312zm0 0" fill="#6fce91"/><path d="m259.777344 144.648438c64.695312 11.40625 101.957031 70.515624 94.550781 148.765624-7.703125 81.398438-48.449219 135.945313-141.847656 119.476563-93.398438-16.46875-113.035157-81.660156-92.433594-160.785156 19.804687-76.066407 75.035156-118.863281 139.730469-107.457031zm0 0" fill="#f7ef87"/><g fill="#efd176"><path d="m219.917969 144.554688c-46.785157 8.46875-84.292969 47.710937-99.871094 107.550781-20.542969 78.902343-1.066406 143.949219 91.664063 160.640625-100.472657-88.765625-48.351563-207.761719 8.207031-268.191406zm0 0"/><path d="m254.964844 245.984375c-2.363282 0-4.6875-1.117187-6.148438-3.199219l-5.066406-7.234375-7.234375 5.0625c-3.398437 2.378907-8.070313 1.554688-10.445313-1.839843-2.375-3.394532-1.550781-8.070313 1.839844-10.445313l13.378906-9.367187c3.394532-2.375 8.070313-1.550782 10.445313 1.839843l9.371094 13.382813c2.375 3.390625 1.550781 8.066406-1.84375 10.445312-1.308594.914063-2.808594 1.355469-4.296875 1.355469zm0 0"/><path d="m319.992188 257.449219c-2.363282 0-4.6875-1.113281-6.148438-3.199219l-5.066406-7.234375-7.234375 5.066406c-3.390625 2.375-8.070313 1.550781-10.445313-1.84375-2.375-3.390625-1.550781-8.066406 1.84375-10.441406l13.378906-9.371094c1.628907-1.140625 3.640626-1.585937 5.605469-1.242187 1.957031.347656 3.699219 1.457031 4.839844 3.085937l9.367187 13.378907c2.375 3.394531 1.550782 8.070312-1.84375 10.445312-1.308593.914062-2.808593 1.355469-4.296874 1.355469zm0 0"/><path d="m189.9375 234.519531c-2.363281 0-4.6875-1.117187-6.148438-3.199219l-5.066406-7.238281-7.234375 5.070313c-3.390625 2.375-8.070312 1.550781-10.445312-1.84375-2.375-3.394532-1.550781-8.070313 1.84375-10.445313l13.378906-9.367187c1.628906-1.140625 3.640625-1.585938 5.605469-1.242188 1.957031.34375 3.699218 1.453125 4.839844 3.082032l9.367187 13.378906c2.375 3.394531 1.550781 8.070312-1.84375 10.445312-1.308594.917969-2.808594 1.359375-4.296875 1.359375zm0 0"/><path d="m263.972656 385.023438c-2.363281 0-4.6875-1.113282-6.148437-3.195313l-5.066407-7.238281-7.234374 5.066406c-3.390626 2.378906-8.070313 1.554688-10.445313-1.839844-2.375-3.394531-1.550781-8.070312 1.84375-10.445312l13.375-9.367188c1.628906-1.144531 3.648437-1.59375 5.605469-1.242187 1.957031.34375 3.699218 1.453125 4.839844 3.082031l9.371093 13.378906c2.375 3.394532 1.550781 8.070313-1.84375 10.445313-1.308593.917969-2.808593 1.355469-4.296875 1.355469zm0 0"/><path d="m198.945312 373.558594c-2.363281 0-4.6875-1.113282-6.148437-3.199219l-5.066406-7.234375-7.234375 5.066406c-3.394532 2.378906-8.070313 1.550782-10.445313-1.84375-2.375-3.394531-1.550781-8.066406 1.84375-10.445312l13.378907-9.367188c3.394531-2.375 8.070312-1.550781 10.445312 1.84375l9.367188 13.378906c2.375 3.394532 1.550781 8.070313-1.84375 10.445313-1.308594.917969-2.808594 1.355469-4.296876 1.355469zm0 0"/></g><path d="m231.4375 343.023438c7.675781 1.351562 14.996094-3.773438 16.347656-11.449219l6.964844-39.507813-27.792969-4.898437-6.96875 39.507812c-1.351562 7.675781 3.773438 14.992188 11.449219 16.347657zm0 0" fill="#fff"/><path d="m183.859375 297.101562c2.15625-12.234374-8.550781-24.34375-23.910156-27.054687-15.363281-2.707031-29.5625 5.015625-31.71875 17.25-2.160157 12.230469 8.546875 24.34375 23.910156 27.050781 15.359375 2.710938 29.5625-5.011718 31.71875-17.246094zm0 0" fill="#eda1ab"/><path d="m278.972656 313.910156c-2.15625 12.234375 8.546875 24.34375 23.910156 27.054688 15.359376 2.707031 29.5625-5.015625 31.71875-17.25 2.15625-12.230469-8.546874-24.34375-23.910156-27.050782-15.363281-2.710937-29.5625 5.011719-31.71875 17.246094zm0 0" fill="#eda1ab"/><path d="m256.84375 292.4375c2.441406-13.859375-7.367188-16.933594-19.753906-19.117188-12.386719-2.183593-22.65625-2.652343-25.097656 11.207032-2.445313 13.859375 5.613281 26.867187 18 29.050781 12.382812 2.183594 24.40625-7.28125 26.851562-21.140625zm0 0" fill="#4e5660"/><path d="m103.652344 90.304688c4.5-43.027344-6.636719-78.066407-31.046875-82.367188-24.410157-4.308594-46.859375 24.8125-57.347657 66.78125-4.148437 16.585938-.804687 32.050781 12.421876 41.945312 5.226562 3.910157 7.53125 10.621094 6.027343 16.96875l-25.097656 105.804688c-3.035156 12.792969 5.324219 25.507812 18.273437 27.789062 12.953126 2.285157 25.15625-6.800781 26.679688-19.863281l12.605469-108.007812c.753906-6.480469 5.21875-11.996094 11.464843-13.882813 15.816407-4.773437 24.242188-18.164062 26.019532-35.167968zm0 0" fill="#a3defe"/><path d="m213.023438 437.449219c30.304687-17.375 111.863281-4.5 135.679687-87.472657 2.03125-7.066406-4.246094-13.742187-11.445313-12.246093-45.023437 9.363281-79.085937 10.351562-112.316406 4.492187-33.234375-5.859375-64.898437-18.441406-104.007812-42.636718-6.253906-3.867188-14.4375.257812-14.945313 7.59375-5.996093 86.113281 75.046875 101.90625 97.578125 128.601562 2.355469 2.789062 6.292969 3.484375 9.457032 1.667969zm0 0" fill="#fcf2d0"/><path d="m170.871094 325.996094c-15.664063-6.679688-32.019532-15.320313-49.9375-26.410156-6.253906-3.867188-14.4375.257812-14.949219 7.59375-5.992187 86.113281 75.046875 101.90625 97.582031 128.601562 2.355469 2.789062 6.292969 3.480469 9.457032 1.667969 2.378906-1.367188 5.074218-2.542969 8.03125-3.59375-51.441407-28.082031-51.726563-75.785157-50.183594-107.859375zm0 0" fill="#f6e3a3"/><path d="m186.730469 332.171875-7.402344 41.980469c13.691406 5.738281 26.742187 9.792968 37.910156 11.761718s24.816407 2.621094 39.644531 1.910157l7.402344-41.976563c-13.621094-.136718-26.546875-1.367187-39.34375-3.625-12.796875-2.253906-25.363281-5.523437-38.210937-10.050781zm0 0" fill="#e26e7e"/><path d="m179.328125 374.152344c-24.601563-10.3125-51.28125-26.082032-72.914063-45.117188 5.34375 45.605469 38.726563 67.296875 66.039063 84.105469zm0 0" fill="#e26e7e"/><path d="m177.386719 385.160156c-1.667969-4.5-2.953125-9.042968-3.945313-13.574218-22.914062-10.277344-47.109375-25.023438-67.027344-42.550782 5.34375 45.609375 38.726563 67.296875 66.039063 84.105469zm0 0" fill="#d9495d"/><path d="m256.878906 387.824219c26.644532-1.273438 57.113282-6.964844 83.949219-17.457031-20.621094 41.03125-59.40625 49.992187-90.824219 56.449218zm0 0" fill="#e26e7e"/><path d="m55.914062 102.582031c11.882813 2.097657 23.996094-5.242187 25.582032-19.269531 2.992187-26.449219-1.277344-49.066406-13.160156-51.164062-11.882813-2.09375-23.632813 17.699218-29.867188 43.578124-3.308594 13.722657 5.566406 24.761719 17.445312 26.855469zm0 0" fill="#7acefa"/><path d="m451.796875 338.03125c-4.324219-4.519531-10.152344-7.082031-16.402344-7.21875-6.253906-.140625-12.1875 2.171875-16.707031 6.496094-13.675781 13.089844-26.730469 17.984375-37.75 14.15625-10.382812-3.609375-19.199219-14.898438-23.277344-29.640625 1.824219-8.746094 3.21875-17.992188 4.136719-27.703125 3.796875-40.117188-3.59375-76.136719-21.371094-104.171875-1.179687-1.863281-2.402343-3.675781-3.660156-5.449219 11.042969-2.722656 20.835937-7.039062 29.21875-12.910156 27.90625-19.539063 38.488281-54.792969 42.3125-74.066406 1.015625-5.109376-.074219-10.273438-3.0625-14.546876-2.992187-4.269531-7.472656-7.058593-12.621094-7.851562-17.359375-2.679688-48.558593-4.640625-74.910156 8.921875-2.757813-24.355469-14.777344-45.984375-23.0625-58.367187-2.894531-4.332032-7.316406-7.214844-12.449219-8.121094-5.136718-.902344-10.277344.292968-14.480468 3.371094-12.019532 8.804687-30.714844 25.019531-41.632813 46.960937-20.128906-21.757813-50.113281-30.585937-67.34375-34.003906-5.105469-1.015625-10.273437.070312-14.542969 3.0625-4.273437 2.988281-7.0625 7.472656-7.855468 12.621093-2.996094 19.421876-5.109376 56.167969 14.429687 84.070313 5.867187 8.382813 13.59375 15.789063 23.042969 22.125-1.789063 1.234375-3.558594 2.523437-5.304688 3.867187-25.984375 20.027344-45.101562 50.859376-55.34375 89.21875-17.203125-11.339843-30.695312-27.710937-45.789062-55.085937l6.25-53.539063c.417968-3.59375 2.847656-6.566406 6.183594-7.574218 17.695312-5.34375 29.109374-20.496094 31.3125-41.566406 1.414062-13.527344 1.359374-26.273438-.15625-37.886719-.535157-4.105469-4.304688-7-8.40625-6.464844-4.105469.535156-7.003907 4.300781-6.464844 8.40625 1.363281 10.453125 1.402344 22.023437.109375 34.386719-1.109375 10.601562-5.605469 24.199218-20.730469 28.765625-9.0625 2.738281-15.632812 10.664062-16.746094 20.195312l-12.609375 108.003907c-.496093 4.246093-2.65625 7.988281-6.082031 10.542968-3.429688 2.550782-7.632812 3.546875-11.84375 2.804688-4.210938-.738282-7.820312-3.113282-10.167969-6.6875-2.347656-3.570313-3.097656-7.824219-2.113281-11.984375l25.097656-105.804688c2.214844-9.335937-1.25-19.03125-8.828125-24.703125-12.652343-9.464844-12.226562-23.78125-9.644531-34.121094 9.84375-39.371093 29.914062-64.546874 48.773438-61.21875 5.597656.988282 10.46875 4.285157 14.472656 9.800782 2.4375 3.351562 7.125 4.09375 10.476562 1.660156 3.351563-2.433594 4.097656-7.125 1.660156-10.476562-6.277343-8.644532-14.578124-14.09375-24.003906-15.753907-14.527344-2.566406-28.691406 3.878907-40.964844 18.625-10.789062 12.96875-19.421874 31.542969-24.964843 53.726563-5.136719 20.554687.40625 38.691406 15.207031 49.769531 2.792969 2.085937 4.054688 5.710937 3.21875 9.230469l-25.09375 105.804687c-1.921875 8.097657-.398438 16.730469 4.171875 23.6875 4.574219 6.953125 11.902344 11.773438 20.097656 13.21875 1.738281.304688 3.488281.457031 5.234375.457031 6.492188 0 12.910156-2.085937 18.171875-6.007812 3.011719-2.242188 5.550781-5.019531 7.527344-8.152344 13.214844 14.984375 28.191406 26.597656 46.066406 35.753906-2.363281 2.753907-3.8125 6.222657-4.078125 9.996094-2.984375 42.90625 14.195313 69.546875 35.472656 88.402344-14.054687 24-22.230468 51.5-21.550781 73.128906.398438 12.714844 10.675781 22.679688 23.394531 22.679688.253907 0 .511719-.003906.746094-.015625 6.25-.191407 12.050782-2.8125 16.332032-7.371094 4.28125-4.5625 6.53125-10.515625 6.335937-16.765625-.378906-11.957031 4.839844-29.226562 13.289063-44.730469 10.859374 6.675781 20.167968 12.53125 25.316406 18.628907 2.933594 3.476562 7.164062 5.324218 11.464844 5.324218 2.542968 0 5.113281-.648437 7.453124-1.988281 6.3125-3.621094 15.808594-5.867187 26.90625-8.175781 1.457032 18.328125.179688 34.761718-3.554687 44.105468-2.324219 5.808594-2.25 12.171876.214844 17.921876 2.464843 5.746093 7.019531 10.191406 12.828125 12.515624 2.78125 1.113282 5.707031 1.679688 8.6875 1.679688 6.964844 0 13.515625-3.0625 17.976562-8.398438 2.65625-3.175781 2.230469-7.90625-.945312-10.5625-3.179688-2.65625-7.90625-2.230468-10.566406.945313-1.578126 1.890625-3.992188 3.015625-6.460938 3.015625-1.066406 0-2.117188-.203125-3.121094-.605469-2.089844-.835937-3.726562-2.433593-4.609375-4.496093-.886719-2.066407-.914062-4.355469-.078125-6.441407 6.335938-15.84375 5.636719-38.875 4.421875-52.746093 5.363281-1.152344 10.910157-2.4375 16.523438-3.988282 1.257812 12.601563 1.4375 25.203125.449219 36.238282-.367188 4.128906 2.675781 7.769531 6.800781 8.140624.230469.019532.453125.027344.679687.027344 3.839844 0 7.113282-2.929687 7.460938-6.828125 1.152344-12.882812.867187-27.679687-.789063-42.253906 19.777344-7.347656 39.121094-19.285156 52.984375-41.394531 6.972656 5.777344 14.671875 10.152344 22.988282 13.046875 7.375 2.566406 15.132812 3.867187 23.0625 3.867187 21.742187 0 42.757812-9.566406 62.460937-28.429687 4.519531-4.324219 7.082031-10.148438 7.21875-16.402344.132813-6.253906-2.175781-12.1875-6.5-16.703125zm-345.171875-56.171875c-17.867188-9.574219-32.117188-21.738281-45.0625-38.351563l2.9375-25.148437c13.902344 21.707031 27.636719 35.597656 45.035156 45.921875-1.222656 5.996094-2.199218 11.863281-2.910156 17.578125zm211.339844-180.574219c23.535156-15.917968 55.359375-13.960937 72.359375-11.335937 1.441406.222656 2.261719 1.117187 2.621093 1.632812.359376.515625.921876 1.589844.636719 3.019531-3.386719 17.070313-12.59375 48.171876-36.203125 64.703126-8.574218 6.003906-19.121094 10.066406-31.382812 12.105468-8.390625-8.820312-18.003906-16.128906-28.675782-21.816406 10.605469-13.382812 17.257813-27.347656 19.773438-41.621094.394531-2.234375.679688-4.464844.871094-6.6875zm-84.730469-8.101562c2.148437-12.183594 10.632813-36.195313 43.339844-60.152344 1.175781-.863281 2.386719-.808594 3.007812-.699219.617188.109375 1.777344.472657 2.589844 1.6875 22.539063 33.695313 22.300781 59.164063 20.152344 71.347657-2.261719 12.808593-8.714844 25.527343-19.175781 37.859374-7.003907-2.605468-14.367188-4.601562-22.066407-5.960937-7.703125-1.359375-15.308593-2-22.777343-1.945313-5.613282-15.167968-7.328126-29.324218-5.070313-42.136718zm-70.1875 31.855468c-16.53125-23.609374-14.542969-55.984374-11.890625-73.179687.222656-1.441406 1.121094-2.265625 1.636719-2.625s1.59375-.921875 3.019531-.636719c16.871094 3.347656 47.445312 12.390625 64.113281 35.402344-.574219 2.152344-1.070312 4.34375-1.464843 6.578125-2.515626 14.277344-1.042969 29.675781 4.347656 45.875-11.976563 1.695313-23.507813 5.277344-34.410156 10.695313-10.820313-6.109376-19.34375-13.53125-25.351563-22.109376zm-18.804687 342.152344c.066406 2.246094-.738282 4.386719-2.277344 6.023438-1.539063 1.640625-3.625 2.578125-5.894532 2.652344h-.25c-4.566406 0-8.257812-3.578126-8.402343-8.148438-.570313-18.101562 6.546875-42.148438 18.410156-63.140625 4.636719 3.402344 9.324219 6.535156 13.921875 9.46875-11.90625 21.347656-15.886719 41.117187-15.507812 53.144531zm197.253906-119.28125c-16.027344 55.824219-60.195313 64.855469-95.6875 72.109375-14.5625 2.980469-27.144532 5.550781-36.511719 10.921875-6.964844-8.25-17.90625-14.96875-30.574219-22.75-1.589844-.972656-3.195312-1.960937-4.816406-2.964844-.003906 0-.003906-.003906-.003906-.003906-.003906 0-.003906-.003906-.003906-.003906-29.894532-18.507812-64.257813-42.5625-60.429688-97.519531.070312-1.027344.703125-1.558594 1.21875-1.824219.058594-.03125.148438-.054688.222656-.085938.113282-.035156.226563-.070312.339844-.109374.164062-.039063.332031-.074219.527344-.074219.363281 0 .777344.09375 1.210937.359375 38.832031 24.023437 71.722657 37.484375 106.648438 43.644531 34.925781 6.15625 70.4375 4.757813 115.148437-4.535156.78125-.164063 1.363282.066406 1.765625.339843.089844.074219.183594.144532.277344.214844.054687.050782.105469.101563.148437.148438.394532.425781.804688 1.140625.519532 2.132812zm5.367187-55.203125c-1.277343 13.5-3.496093 26.007813-6.585937 37.339844-1.496094-.085937-3.023438.023437-4.546875.339844-42.757813 8.890625-76.527344 10.261719-109.488281 4.449219-32.964844-5.8125-64.226563-18.648438-101.363282-41.628907-1.320312-.816406-2.71875-1.441406-4.15625-1.875.972656-11.703125 3.167969-24.21875 6.582032-37.339843 11.289062-43.351563 34.171874-75.078126 63.707031-91.347657.605469-.230469 1.179687-.542969 1.710937-.925781 12.492188-6.570312 26.132813-10.410156 40.566406-11.230469.230469-.003906.464844-.011719.695313-.035156 7.949219-.402344 16.132813.109375 24.492187 1.582031 8.371094 1.476563 16.246094 3.800782 23.589844 6.902344.203125.09375.410156.183594.617188.257812 13.242187 5.695313 24.71875 13.9375 34.195312 24.347657.394532.601562.875 1.132812 1.417969 1.59375 22.148437 25.390625 32.785156 63.007812 28.566406 107.570312zm93.839844 67.59375c-16.816406 16.101563-34.34375 24.261719-52.089844 24.261719-6.246093 0-12.347656-1.019531-18.132812-3.03125-7.550781-2.625-14.484375-6.835938-20.699219-12.5 2.3125-5.203125 4.371094-10.847656 6.132812-16.980469.066407-.242187.121094-.484375.179688-.722656 5.59375 6.726563 12.378906 11.6875 19.914062 14.308594 11.644532 4.042969 30.296876 4.289062 53.050782-17.492188 1.625-1.554687 3.753906-2.421875 6.007812-2.335937 2.246094.050781 4.339844.972656 5.894532 2.59375 1.554687 1.625 2.382812 3.757812 2.335937 6.003906-.050781 2.246094-.96875 4.339844-2.59375 5.894531zm-130.535156-87.804687c-4.082031-.722656-7.96875 2.003906-8.6875 6.082031l-2.105469 11.9375c-.71875 4.082031 2.003906 7.972656 6.082031 8.6875.441407.078125.878907.117187 1.3125.117187 3.570313 0 6.734375-2.558593 7.375-6.199218l2.105469-11.9375c.722656-4.078125-2-7.96875-6.082031-8.6875zm-53.140625.007812c-4.742188-3.558594-10.878906-5.199218-18.636719-6.566406-7.757813-1.371094-14.085937-1.929688-19.757813-.203125-5.273437 1.601563-11.992187 5.9375-14.027343 17.492187-3.160157 17.910157 7.644531 34.839844 24.082031 37.738282 1.644531.289062 3.289062.433594 4.929688.433594 6.453124 0 12.765624-2.230469 18.167968-6.480469 6.519532-5.136719 10.941406-12.65625 12.441406-21.175781 2.039063-11.558594-2.789062-17.929688-7.199218-21.238282zm-7.570313 18.632813c-.863281 4.882812-3.332031 9.144531-6.953125 11.996093-3.371094 2.652344-7.351562 3.734376-11.210937 3.058594-8.292969-1.464844-13.636719-10.597656-11.917969-20.359375.867188-4.910156 2.589844-5.433593 3.617188-5.746093.996093-.304688 2.226562-.425782 3.597656-.425782 2.765625 0 6.09375.5 9.199218 1.046875 4.644532.820313 9.726563 1.910157 12.234376 3.792969.859374.644531 2.300781 1.722656 1.433593 6.636719zm-80.757812-43.585938c-4.082031-.722656-7.96875 2.003907-8.6875 6.082031l-2.105469 11.941407c-.71875 4.078125 2.003906 7.96875 6.085938 8.6875.441406.078125.878906.113281 1.308593.113281 3.570313 0 6.734375-2.558594 7.378907-6.195312l2.105468-11.941407c.71875-4.078125-2.003906-7.96875-6.085937-8.6875zm0 0"/></svg>